<?xml version="1.0" standalone="no"?>
<!DOCTYPE svg PUBLIC "-//W3C//DTD SVG 20010904//EN"
 "http://www.w3.org/TR/2001/REC-SVG-20010904/DTD/svg10.dtd">
<svg version="1.0" xmlns="http://www.w3.org/2000/svg"
 width="450.000000pt" height="327.000000pt" viewBox="0 0 450.000000 327.000000"
 preserveAspectRatio="xMidYMid meet">
<metadata>
Created by potrace 1.16, written by Peter Selinger 2001-2019
</metadata>
<g transform="translate(0.000000,327.000000) scale(0.100000,-0.100000)"
fill="#000000" stroke="none">
<path d="M273 3236 c-88 -28 -172 -103 -220 -196 l-28 -55 0 -1350 0 -1350 29
-58 c35 -69 118 -150 183 -180 38 -16 73 -22 161 -25 l112 -4 0 1200 c0 661 3
1203 8 1205 4 3 394 -264 866 -593 l860 -598 45 31 c25 17 408 280 850 585
442 305 810 556 817 559 12 4 14 -188 14 -1192 l0 -1198 108 6 c216 13 328 72
378 203 18 47 19 99 19 1404 l0 1355 -31 60 c-37 71 -116 148 -179 176 -61 27
-140 36 -158 18 -42 -42 -1851 -1364 -1865 -1363 -17 0 -1844 1349 -1850 1366
-5 12 -71 9 -119 -6z"/>
</g>
</svg>
