<?xml version="1.0" standalone="no"?>
<!DOCTYPE svg PUBLIC "-//W3C//DTD SVG 20010904//EN"
 "http://www.w3.org/TR/2001/REC-SVG-20010904/DTD/svg10.dtd">
<svg version="1.0" xmlns="http://www.w3.org/2000/svg"
 width="1181.000000pt" height="1575.000000pt" viewBox="0 0 1181.000000 1575.000000"
 preserveAspectRatio="xMidYMid meet">
<metadata>
Created by potrace 1.16, written by Peter Selinger 2001-2019
</metadata>
<g transform="translate(0.000000,1575.000000) scale(0.100000,-0.100000)"
fill="#000000" stroke="none">
<path d="M6191 14363 c-9 -16 -12 -16 -21 -3 -8 12 -10 9 -10 -13 0 -27 0 -27
-20 -9 -20 19 -80 20 -80 1 0 -5 7 -5 17 -2 11 4 14 3 9 -5 -4 -7 -19 -10 -34
-7 -14 2 -29 0 -33 -6 -7 -12 -135 -59 -159 -59 -8 0 -28 -7 -45 -16 -16 -8
-38 -13 -48 -10 -10 2 -34 -6 -54 -20 -20 -13 -46 -24 -59 -24 -13 0 -24 -4
-24 -9 0 -5 -17 -15 -37 -21 -55 -17 -83 -31 -124 -62 -44 -33 -49 -34 -42 -8
7 26 4 25 -62 -10 -30 -16 -55 -27 -55 -24 0 3 -13 -4 -29 -15 -16 -12 -34
-21 -39 -21 -19 0 -62 -27 -54 -35 4 -5 1 -5 -5 -1 -18 10 9 59 47 88 35 25
40 44 8 26 -13 -6 -29 -13 -37 -14 -8 -2 -18 -9 -22 -16 -5 -7 -15 -13 -23
-13 -20 0 -76 -43 -76 -57 0 -7 14 3 31 20 31 32 54 37 30 8 -7 -8 -9 -21 -5
-28 4 -7 4 -10 0 -6 -5 4 -25 -10 -47 -31 -21 -21 -40 -33 -42 -27 -6 16 -18
2 -20 -23 -2 -25 -14 -28 -19 -4 -3 15 -12 10 -48 -23 -37 -34 -47 -39 -57
-28 -7 7 -9 15 -4 19 5 3 11 -1 14 -7 3 -8 17 2 38 26 18 22 44 50 57 63 29
29 24 41 -6 13 -12 -11 -28 -20 -36 -20 -8 0 -27 -11 -42 -25 -18 -16 -30 -22
-34 -15 -6 10 -44 -33 -45 -50 0 -9 -35 -55 -35 -47 0 5 7 22 16 39 28 54 0
50 -52 -7 -28 -31 -48 -58 -45 -60 2 -3 -3 -5 -12 -5 -10 0 -17 -4 -17 -10 0
-5 -7 -18 -15 -27 -8 -10 -21 -27 -30 -38 -12 -16 -14 -16 -9 -2 3 9 1 17 -5
17 -6 0 -11 -4 -11 -9 0 -12 -28 -41 -40 -41 -4 0 -6 9 -3 20 3 10 10 18 15
17 5 -1 14 9 19 23 8 23 8 23 -5 7 -8 -10 -16 -13 -17 -8 -3 7 -14 5 -33 -4
-15 -8 -32 -13 -36 -10 -5 3 -12 1 -15 -5 -4 -6 -14 -8 -24 -5 -10 3 -22 -3
-31 -15 -8 -11 -19 -20 -25 -20 -14 -1 -85 -101 -85 -120 0 -10 -9 -25 -20
-35 -11 -10 -20 -26 -20 -35 0 -9 -3 -20 -7 -24 -5 -4 -8 -11 -9 -14 0 -4 -3
-14 -7 -22 -3 -8 -11 -33 -18 -55 l-13 -40 -7 35 c-5 30 -7 31 -8 8 0 -14 -4
-33 -7 -42 -4 -11 -1 -16 10 -16 9 0 16 -4 16 -10 0 -5 -4 -10 -10 -10 -5 0
-10 -9 -10 -21 0 -11 -4 -17 -10 -14 -6 3 -10 -5 -10 -19 0 -14 -5 -28 -12
-32 -8 -5 -9 -2 -5 10 4 10 0 24 -9 33 -11 12 -15 29 -12 64 4 37 1 50 -11 54
-9 4 -11 9 -6 13 17 12 35 51 35 76 0 32 31 126 42 126 4 0 8 5 8 12 0 6 -9 3
-20 -7 -11 -10 -20 -24 -20 -32 0 -7 -4 -13 -9 -13 -5 0 -11 -9 -14 -20 -8
-32 -22 -23 -23 15 0 19 3 35 7 35 4 0 14 14 23 30 19 38 11 38 -25 -1 -21
-23 -27 -35 -19 -44 10 -12 -4 -61 -31 -108 -5 -10 -7 -22 -4 -27 3 -6 1 -18
-5 -27 -9 -14 -10 -6 -6 37 l5 55 -25 -50 c-13 -27 -35 -61 -48 -75 -13 -14
-32 -38 -42 -55 -10 -16 -26 -39 -35 -50 -14 -16 -16 -29 -10 -63 8 -39 7 -42
-10 -37 -16 6 -19 1 -19 -32 0 -22 5 -44 12 -51 9 -9 9 -12 0 -12 -6 0 -14
-16 -18 -35 -6 -36 -18 -45 -27 -22 -3 6 -6 1 -7 -13 l-2 -25 -8 25 c-8 24 -8
23 -9 -7 -1 -22 -6 -33 -16 -33 -20 0 -31 -65 -16 -97 10 -21 9 -24 -3 -20 -8
3 -20 -1 -26 -9 -11 -13 -7 -18 13 -15 4 0 6 -2 6 -6 -3 -19 2 -33 12 -33 7 0
9 10 6 25 -7 38 6 20 20 -26 l11 -41 -21 19 c-12 10 -30 26 -40 35 -29 29 -40
22 -34 -19 3 -21 3 -32 0 -25 -2 6 -10 9 -16 5 -7 -4 -8 0 -4 11 4 11 3 15 -4
11 -6 -4 -8 -14 -4 -23 4 -10 -6 -26 -26 -45 -25 -23 -29 -31 -18 -37 8 -6 19
-4 29 5 13 12 15 9 16 -25 2 -29 -1 -37 -12 -33 -8 3 -14 0 -14 -7 0 -6 9 -14
20 -17 19 -5 29 -23 12 -23 -4 0 -14 -14 -21 -32 -8 -18 -16 -27 -19 -20 -7
22 -37 12 -54 -17 -13 -24 -13 -29 -2 -24 10 4 14 -3 14 -21 0 -14 -5 -26 -11
-26 -6 0 -9 7 -5 15 7 20 -27 20 -44 0 -7 -8 -16 -13 -20 -10 -4 3 -11 -2 -14
-11 -11 -27 -6 -38 7 -20 24 33 37 14 17 -24 -10 -19 -25 -48 -33 -65 -8 -16
-28 -52 -46 -79 -18 -30 -31 -63 -31 -82 0 -18 -4 -36 -10 -39 -5 -3 -9 -18
-9 -33 l1 -27 7 25 c9 36 38 35 38 -1 0 -16 -4 -29 -8 -29 -8 0 -26 -86 -28
-134 -1 -40 6 -30 24 35 l15 54 -6 -60 c-3 -33 -5 -69 -5 -79 0 -11 -4 -28
-10 -38 -5 -10 -7 -24 -3 -30 10 -16 9 -114 -1 -163 -11 -50 -13 -265 -2 -258
11 7 -1 -149 -13 -161 -13 -13 -13 -56 0 -56 5 0 7 -13 3 -31 -4 -20 -1 -34 6
-39 10 -6 10 -12 -1 -29 -11 -18 -11 -23 2 -31 9 -6 11 -13 5 -17 -9 -7 -11
-64 -6 -138 1 -18 2 -19 12 -2 17 30 30 19 25 -20 l-6 -38 10 33 c6 17 13 32
15 32 8 0 -2 -54 -15 -83 -11 -22 -11 -39 -2 -85 7 -31 14 -70 17 -86 2 -16 7
-31 9 -33 5 -6 36 62 36 81 1 6 7 -2 14 -19 8 -18 10 -35 4 -41 -4 -6 -6 -20
-2 -30 3 -12 -1 -10 -11 6 l-16 25 5 -30 c3 -19 -1 -36 -11 -47 -14 -15 -14
-19 1 -33 9 -9 14 -20 11 -25 -3 -5 -1 -11 5 -15 6 -4 8 -10 6 -14 -3 -4 -1
-24 4 -44 6 -30 5 -39 -9 -47 -15 -9 -15 -9 0 -10 21 0 29 -20 29 -73 l0 -41
19 21 c17 18 19 30 14 79 -3 33 -3 56 1 52 4 -3 9 -66 11 -140 3 -111 2 -130
-9 -115 -13 17 -14 16 -19 -2 -6 -24 3 -71 13 -71 4 0 10 -16 12 -35 2 -19 2
-35 -1 -35 -3 0 -17 12 -33 27 -34 33 -45 25 -23 -16 11 -21 12 -31 4 -31 -7
0 -5 -8 6 -20 17 -19 16 -19 -21 -14 -39 6 -39 5 -18 -13 11 -10 25 -30 32
-45 6 -16 16 -28 22 -28 7 0 5 9 -4 22 -18 25 -20 38 -7 38 8 0 20 -26 26 -55
1 -5 5 -17 8 -25 3 -8 6 -26 6 -40 0 -14 3 -38 7 -55 7 -28 6 -29 -11 -15 -18
14 -18 14 -3 -10 21 -33 31 -100 15 -97 -7 1 -12 -5 -12 -13 0 -8 6 -14 13
-13 13 3 17 -13 4 -19 -5 -1 -12 -16 -16 -31 -4 -19 -3 -26 4 -22 5 3 10 13
10 21 0 8 5 14 11 14 10 0 3 -38 -10 -53 -6 -6 1 -107 9 -142 4 -18 0 -58 -5
-53 -3 3 -8 25 -11 49 -6 51 -11 59 -21 33 -3 -10 -10 -21 -15 -25 -9 -6 -28
-98 -28 -135 0 -13 6 -24 13 -24 6 0 13 -11 13 -25 1 -14 -2 -22 -7 -19 -5 3
-9 0 -9 -5 0 -6 4 -11 10 -11 5 0 6 -7 3 -17 -4 -9 -2 -14 3 -10 16 9 47 -53
46 -90 -1 -18 2 -33 7 -33 9 0 75 -100 76 -115 0 -5 4 -16 8 -22 5 -8 3 -13
-7 -13 -8 0 -18 5 -21 10 -3 6 -11 10 -18 10 -6 0 0 -8 13 -17 31 -21 57 -49
78 -85 9 -15 22 -30 30 -33 12 -4 13 -3 2 10 -9 11 -10 18 -1 28 6 8 8 17 4
21 -4 4 0 4 10 0 9 -3 14 -10 11 -15 -3 -5 2 -9 10 -9 19 0 21 11 5 27 -8 8
-8 17 -1 30 6 11 7 25 2 33 -4 7 -7 40 -6 72 2 46 0 58 -11 54 -11 -4 -11 -1
-2 15 6 11 7 28 3 37 -13 31 -13 66 -1 74 8 6 9 10 1 16 -16 11 -24 41 -14 47
15 9 12 28 -3 22 -15 -6 -16 51 -2 151 5 41 4 52 -7 52 -8 0 -14 9 -14 19 0
11 3 18 6 16 12 -7 28 23 19 36 -11 18 -12 79 0 79 5 0 11 7 15 15 3 8 0 14
-7 12 -17 -3 -16 42 2 77 11 22 11 31 3 34 -14 4 -16 38 -3 47 6 3 9 13 9 23
0 9 2 31 6 47 6 23 5 26 -3 15 -17 -24 -13 -2 9 42 11 23 20 47 20 54 0 6 7
29 17 50 9 22 18 50 20 64 1 14 4 34 6 45 1 11 7 29 13 40 6 11 17 45 24 75 7
30 19 64 26 75 8 11 14 31 14 45 0 14 10 45 22 70 11 25 25 68 30 95 5 28 11
59 13 70 3 11 7 36 10 55 4 19 11 52 16 73 5 20 7 41 4 46 -3 5 0 11 7 13 6 2
13 23 14 47 2 38 0 41 -14 29 -15 -12 -15 -11 0 13 10 15 13 31 8 40 -12 21 0
68 21 79 10 6 16 17 13 24 -4 11 0 13 14 9 22 -5 23 3 4 50 -6 15 -17 27 -23
27 -8 0 -8 4 1 14 15 19 20 84 9 115 -7 18 -5 27 8 38 10 8 12 12 6 8 -16 -7
-17 11 -3 20 6 4 10 14 8 24 -2 9 5 29 14 44 17 25 15 57 -3 57 -14 0 -11 -18
4 -23 8 -3 7 -10 -7 -26 -21 -23 -48 -13 -30 11 17 22 35 70 24 63 -24 -15 -4
34 38 92 33 46 27 47 -16 2 l-39 -40 2 38 c2 21 -1 43 -6 48 -9 13 -8 55 2 55
12 0 26 54 23 87 -3 24 2 36 18 48 13 8 18 15 13 15 -5 0 -4 5 3 12 7 7 12 25
12 42 0 28 0 29 -20 11 -30 -27 -34 -12 -5 15 14 13 25 29 25 36 0 7 6 14 13
17 6 2 9 8 5 12 -4 4 -14 2 -23 -5 -9 -7 -15 -8 -15 -2 0 6 5 12 11 14 6 2 13
21 16 43 4 39 4 39 -17 20 -24 -22 -25 -18 -4 24 8 17 24 36 35 41 14 8 18 17
13 34 -3 14 1 27 10 35 11 10 13 18 6 31 -7 13 -7 21 0 25 6 4 8 11 5 16 -4 5
0 12 9 15 8 3 12 12 9 20 -3 8 1 14 8 14 11 0 11 2 0 9 -12 8 -8 15 18 40 18
17 27 31 20 31 -7 0 1 15 18 33 17 17 34 47 38 65 4 17 13 32 20 32 8 0 12 6
10 13 -5 11 9 22 77 63 28 17 35 28 13 20 -16 -6 -17 -5 -8 5 10 10 20 9 50
-5 33 -16 35 -16 23 -1 -13 15 -12 20 8 35 15 13 18 20 10 23 -7 3 -3 6 10 6
13 1 21 -3 18 -7 -2 -4 14 -8 37 -9 l42 -1 -30 14 c-32 14 -39 13 140 19 38 1
77 14 71 24 -3 4 8 5 25 3 16 -2 29 -8 29 -12 0 -4 -23 -24 -52 -44 -29 -20
-45 -36 -35 -36 9 0 24 8 34 18 42 43 81 62 114 57 29 -5 31 -4 12 4 -34 15
-28 18 27 17 29 -1 50 2 50 9 0 5 4 4 9 -4 8 -12 16 -13 48 -3 84 25 103 24
217 -12 181 -56 189 -57 346 -44 109 9 146 9 161 0 10 -7 28 -12 39 -12 11 0
20 -4 20 -10 0 -5 11 -10 25 -10 14 0 25 5 25 10 0 6 -8 10 -17 10 -15 0 -16
2 -3 10 8 5 26 9 40 9 20 0 22 -2 7 -8 -11 -4 6 -7 40 -7 32 -1 51 1 43 4 -22
8 49 29 77 24 19 -4 21 -7 12 -18 -6 -8 -22 -14 -35 -14 -12 0 -26 -4 -29 -10
-10 -16 42 -12 59 5 8 8 25 19 38 23 33 12 168 6 181 -7 6 -6 22 -11 37 -10
l25 1 -25 8 c-23 8 -22 9 10 8 19 0 46 4 60 9 14 6 35 9 48 6 15 -2 21 0 17 7
-3 5 2 10 12 10 15 0 16 2 3 11 -11 7 2 9 49 6 42 -2 64 0 68 8 2 7 16 10 31
8 22 -4 24 -2 12 7 -12 9 -10 11 13 7 15 -2 27 0 27 5 0 5 5 6 10 3 6 -4 7
-11 4 -17 -4 -6 -3 -8 3 -5 5 3 27 -5 48 -20 22 -15 36 -20 33 -12 -3 8 -15
20 -29 26 -13 7 -20 13 -15 13 5 0 3 7 -4 15 -10 12 -8 14 8 10 33 -6 63 -25
57 -36 -4 -5 3 -9 14 -9 11 0 22 -4 26 -10 3 -5 12 -6 21 -3 9 3 24 -4 35 -16
21 -22 29 -26 29 -13 0 4 -16 18 -36 31 -31 21 -33 26 -18 34 12 7 19 5 26 -7
13 -24 31 -21 18 3 -15 30 -12 33 14 16 16 -11 26 -13 31 -5 9 15 25 2 25 -21
0 -18 4 -20 31 -14 25 6 31 4 36 -14 4 -15 13 -21 32 -20 14 0 35 -2 46 -5 11
-2 23 -5 28 -5 4 -1 7 -8 7 -17 0 -12 6 -15 24 -10 15 4 26 1 29 -7 3 -9 9 -8
23 4 15 13 23 14 41 4 14 -7 19 -15 13 -21 -5 -5 4 -9 25 -10 19 0 32 3 29 8
-7 11 10 10 22 -2 5 -5 23 -11 39 -12 17 -1 41 -10 54 -20 14 -10 45 -24 69
-30 28 -7 46 -18 49 -28 3 -12 11 -16 24 -13 22 6 59 -22 59 -44 0 -7 7 -16
15 -19 8 -3 17 -14 20 -25 4 -11 11 -17 16 -13 5 3 7 10 3 16 -4 6 3 8 17 6
28 -4 48 -32 49 -68 1 -22 2 -23 11 -7 5 9 7 23 4 30 -4 6 0 4 8 -5 20 -25 30
-23 17 3 -10 18 -9 19 7 11 32 -18 113 -112 119 -140 4 -15 18 -37 33 -49 30
-24 21 -43 -12 -25 -12 7 -6 -1 13 -18 19 -16 41 -30 48 -30 9 0 12 -6 8 -16
-5 -12 -2 -15 9 -10 12 4 15 -1 13 -22 -2 -18 1 -26 10 -24 8 1 11 -2 8 -7 -4
-5 1 -17 11 -26 10 -11 16 -31 15 -58 -1 -24 4 -47 13 -57 18 -20 11 -47 -13
-52 -13 -2 -8 -11 20 -37 43 -39 57 -69 37 -82 -11 -7 -11 -9 2 -9 9 0 19 -9
22 -20 3 -11 1 -20 -5 -20 -5 0 -6 -5 -2 -12 7 -11 13 -108 7 -108 -1 0 -10
14 -18 31 -9 17 -19 29 -21 26 -3 -3 1 -18 9 -34 8 -16 12 -44 9 -65 -3 -30
-1 -38 12 -38 10 0 16 -8 15 -22 -1 -18 -2 -19 -6 -5 -3 10 -10 16 -16 14 -13
-4 -15 -72 -2 -102 7 -19 7 -19 -7 -1 -13 17 -14 14 -12 -35 1 -30 7 -67 13
-82 14 -36 3 -57 -15 -32 -12 17 -14 14 -12 -21 1 -21 -1 -54 -6 -71 -5 -22
-4 -33 3 -33 6 0 7 7 4 17 -9 22 14 8 28 -18 8 -16 7 -20 -3 -18 -33 4 -38 -1
-28 -27 6 -14 8 -30 4 -35 -3 -5 -1 -9 3 -9 5 0 7 -62 6 -137 -4 -160 -4 -143
0 -213 4 -65 34 -178 71 -270 15 -36 29 -89 32 -119 3 -30 8 -59 12 -65 4 -6
12 -38 19 -71 14 -77 27 -121 47 -168 10 -22 12 -36 7 -32 -6 3 -11 2 -11 -4
0 -5 5 -13 10 -16 6 -4 8 -11 4 -16 -3 -5 0 -17 7 -25 10 -12 9 -13 -6 -8 -14
6 -16 4 -9 -7 9 -14 10 -19 15 -96 1 -24 5 -43 9 -43 6 0 11 -59 12 -147 0
-24 4 -43 10 -43 5 0 7 -4 4 -9 -4 -5 -1 -22 4 -37 8 -19 8 -29 0 -34 -6 -4
-10 -24 -10 -46 4 -128 -1 -218 -12 -231 -7 -8 -11 -29 -10 -47 2 -34 -20
-100 -38 -111 -11 -7 -10 -95 2 -95 8 0 1 -67 -9 -84 -4 -6 5 -3 20 7 30 20
31 19 17 -18 -9 -24 -8 -26 12 -23 13 2 23 10 24 18 1 27 17 75 28 83 7 5 5
11 -6 18 -10 5 -18 17 -18 25 0 8 5 12 10 9 6 -4 8 -11 5 -16 -4 -5 -1 -9 5
-9 6 0 15 11 20 24 5 13 14 27 20 31 5 3 8 10 5 15 -3 5 2 17 12 27 20 20 28
63 12 63 -6 0 -3 7 6 16 9 9 24 14 36 11 15 -4 10 4 -16 26 -36 32 -36 32 -22
66 l15 34 7 -43 c5 -28 10 -38 15 -29 7 11 13 11 34 -1 14 -7 26 -17 26 -22 0
-14 17 -9 23 6 4 10 1 13 -9 9 -16 -6 -19 8 -5 22 5 6 12 29 16 52 6 36 4 44
-14 55 -12 7 -21 16 -21 21 0 4 -9 17 -19 29 -19 20 -18 46 2 59 6 4 3 16 -7
30 -9 13 -16 32 -16 43 0 19 0 20 -14 1 -13 -18 -14 -18 -9 8 3 15 9 24 15 21
5 -3 6 5 3 19 -5 19 -2 25 16 30 14 4 20 11 16 21 -4 9 -2 16 3 16 6 0 10 7
10 15 0 8 5 15 10 15 6 0 10 4 10 10 0 5 -7 7 -15 4 -10 -4 -15 0 -15 14 0 15
9 21 35 26 42 8 56 26 20 26 -22 0 -24 3 -16 19 8 14 7 20 -4 25 -18 7 -8 36
12 36 10 0 13 -6 9 -16 -3 -8 -2 -12 4 -9 14 9 12 59 -2 73 -9 9 -8 12 4 12
13 0 18 14 24 57 6 49 13 64 50 103 46 49 55 66 29 56 -17 -6 -15 47 6 194 7
47 11 100 11 118 -2 24 4 39 20 51 19 16 28 41 28 79 -1 104 14 192 32 192 6
0 7 -8 3 -17 -12 -31 -18 -109 -8 -98 9 9 27 80 38 150 1 11 8 19 14 18 11 -3
13 3 16 67 5 76 5 76 14 62 13 -22 21 42 16 127 -3 48 -10 79 -20 91 -13 14
-13 19 -3 22 10 4 11 11 1 39 -12 32 -8 79 6 79 9 0 1 141 -10 162 -10 19 24
222 40 242 7 8 7 24 1 46 -5 19 -8 36 -5 38 2 2 7 -7 11 -22 11 -45 29 -30 27
23 -2 45 -1 49 19 43 16 -4 19 -2 12 9 -4 8 -7 23 -6 35 2 11 -7 33 -20 49
-15 19 -18 30 -10 33 7 2 9 9 5 15 -4 7 1 6 10 -2 9 -7 14 -17 11 -23 -8 -12
15 -38 33 -38 13 0 13 3 2 16 -7 9 -14 21 -15 28 -1 6 -5 19 -9 29 -4 9 -3 17
3 17 16 0 -11 48 -29 53 -14 4 -15 0 -9 -22 7 -26 -6 -71 -22 -71 -4 0 -8 8
-8 19 0 10 -7 24 -15 31 -10 8 -13 20 -8 34 16 50 5 124 -37 241 -10 28 -28
80 -40 117 -25 77 -50 108 -51 62 0 -25 -2 -26 -8 -9 -8 18 -11 17 -51 -22
-39 -39 -60 -47 -60 -22 0 5 8 9 17 7 11 -2 25 12 42 41 l24 44 -22 18 c-20
17 -20 18 -4 28 14 8 15 12 5 19 -8 5 -13 15 -12 23 4 27 0 39 -14 39 -24 0
-39 26 -27 48 8 16 7 21 -5 26 -9 4 -14 13 -10 21 3 9 0 15 -9 15 -8 0 -15 -4
-15 -10 0 -5 -5 -10 -11 -10 -6 0 -8 7 -5 16 5 12 1 14 -17 9 -17 -6 -19 -4
-11 5 17 17 46 19 68 4 15 -10 23 -11 33 -2 11 9 17 2 30 -31 9 -22 23 -41 31
-41 11 0 12 3 3 14 -6 8 -13 29 -14 48 -2 19 -13 47 -25 63 -12 15 -22 33 -22
40 0 7 -6 18 -14 24 -8 7 -17 27 -20 45 -7 38 -30 87 -59 130 l-20 28 24 -7
c19 -6 21 -5 12 5 -6 7 -26 16 -45 20 -31 7 -31 8 -5 9 18 1 27 6 27 18 0 15
2 14 15 -3 15 -23 83 -59 92 -51 10 10 -8 27 -30 28 -17 1 -18 2 -4 6 9 2 17
8 17 12 0 11 -29 47 -30 37 0 -5 -10 11 -23 35 -15 28 -37 51 -61 64 -38 20
-121 95 -105 95 4 0 11 -4 14 -10 3 -5 12 -10 18 -9 9 0 9 2 0 6 -7 2 -13 10
-13 17 0 18 -79 106 -94 106 -7 0 -13 13 -13 31 0 25 -11 41 -53 80 -29 27
-60 49 -67 49 -17 0 -69 47 -61 55 7 8 95 -21 125 -41 12 -8 29 -14 38 -14 8
0 24 -9 36 -21 11 -11 24 -18 27 -14 4 4 -3 14 -15 22 -23 15 -34 51 -11 37 7
-4 8 -3 4 5 -4 6 -12 9 -17 5 -11 -6 -40 26 -33 37 2 3 -8 4 -21 1 -20 -3 -24
-1 -19 12 3 9 1 16 -5 16 -6 0 -11 5 -11 10 0 15 16 12 34 -6 27 -26 18 -4
-14 37 -17 21 -40 41 -50 44 -11 4 -20 12 -20 18 0 15 -36 48 -43 40 -3 -3 -3
4 0 15 7 26 -34 52 -49 31 -8 -11 -9 -10 -4 3 3 12 -9 27 -45 52 -27 20 -54
36 -59 36 -6 0 -13 6 -16 13 -3 8 -20 20 -39 27 -19 8 -35 17 -35 22 0 4 -7 5
-15 2 -8 -4 -15 -1 -15 5 0 6 -7 8 -17 4 -12 -5 -15 -2 -10 9 6 17 -29 33 -38
18 -3 -4 -14 -6 -26 -3 -14 4 -17 8 -9 13 15 9 -3 22 -34 27 -90 12 -96 15
-85 34 5 10 6 20 2 20 -45 7 -112 29 -118 39 -4 6 -10 8 -15 5 -5 -3 -11 -1
-15 5 -3 5 -21 10 -38 10 -18 0 -39 5 -47 10 -11 7 -5 10 25 11 l40 1 -45 12
c-27 7 -46 18 -48 28 -4 21 -35 32 -62 23 -11 -4 -20 -2 -20 4 0 13 -80 14
-113 2 -16 -6 -32 -6 -48 3 -15 7 -37 9 -58 5 -51 -11 -64 -3 -45 26 9 13 23
26 32 28 19 5 -47 10 -93 7 -16 -1 -34 -5 -40 -10 -19 -14 -53 -18 -87 -10
-30 7 -31 8 -6 9 33 1 58 11 58 22 0 4 -29 6 -65 2 -46 -4 -65 -2 -65 6 0 6 9
11 20 11 24 0 27 18 5 27 -13 5 -13 8 5 20 11 8 25 11 32 7 7 -4 8 -3 4 4 -9
15 -126 16 -126 2 0 -5 9 -10 21 -10 12 0 17 -4 13 -11 -3 -6 -15 -9 -25 -6
-11 3 -19 1 -19 -4 0 -5 -4 -9 -9 -9 -5 0 -7 9 -4 21 5 17 2 19 -18 14 -13 -3
-39 -7 -57 -9 -18 -2 -49 -15 -70 -30 -44 -30 -54 -32 -45 -9 5 14 1 13 -25
-6 -26 -18 -31 -19 -25 -5 5 14 2 16 -19 11 -15 -4 -33 -10 -42 -13 -9 -3 -16
-1 -16 5 0 7 -8 8 -24 1 -13 -5 -26 -6 -29 -3 -3 3 -12 1 -19 -3 -14 -9 -17
-10 -60 -20 -21 -5 -28 -3 -28 9 0 9 9 19 20 22 11 3 20 11 20 17 0 6 -11 3
-25 -6 -14 -9 -31 -14 -37 -10 -7 4 -8 3 -4 -4 5 -8 1 -10 -10 -5 -13 5 -16 3
-11 -10 3 -9 1 -19 -5 -23 -7 -4 -8 -3 -4 4 5 8 0 12 -13 12 -29 0 -26 18 4
26 13 3 30 13 36 21 11 12 8 13 -17 7 -40 -9 -43 -11 -58 -47 l-14 -32 5 40
c4 37 3 39 -11 21 -8 -10 -19 -15 -24 -12 -6 3 -12 2 -14 -4 -5 -14 -51 -19
-70 -6 -25 15 -22 28 13 62 30 28 55 64 45 64 -3 0 -10 -8 -15 -17z m-2110
-1103 c5 0 9 5 9 11 0 5 4 8 9 5 12 -8 20 -56 9 -56 -5 0 -6 -10 -2 -22 6 -21
6 -21 -11 -5 -9 10 -14 25 -11 33 4 10 1 14 -6 11 -7 -2 -12 -10 -11 -18 8
-50 22 -100 31 -111 17 -22 -10 -37 -51 -30 -5 1 -1 12 7 24 20 28 20 39 2 32
-14 -5 -26 23 -26 64 0 12 -4 22 -9 22 -6 0 -9 -18 -9 -40 0 -22 4 -37 9 -34
5 3 9 -2 9 -10 0 -9 -8 -16 -19 -16 -11 0 -21 -6 -24 -12 -2 -7 -4 18 -5 56
-1 57 3 76 24 110 23 38 24 39 19 11 -4 -16 -8 -36 -11 -42 -2 -7 1 -13 7 -13
10 0 12 3 31 70 l13 45 3 -42 c2 -24 7 -43 13 -43z"/>
<path d="M5258 10829 c6 -7 12 -19 12 -26 0 -17 -37 -17 -44 0 -3 8 -8 7 -16
-5 -6 -10 -16 -18 -21 -18 -6 0 -8 4 -5 9 4 5 -11 5 -35 0 -22 -5 -45 -10 -52
-12 -7 -1 -11 4 -9 11 2 10 -2 10 -18 2 -22 -12 -27 -1 -8 18 7 7 8 12 2 12
-12 0 -48 -40 -57 -61 -3 -8 -6 0 -6 16 -1 17 -5 26 -9 20 -4 -5 -13 -10 -19
-11 -28 -2 -33 -4 -33 -15 0 -5 5 -7 10 -4 6 3 10 1 10 -4 0 -6 -3 -11 -7 -11
-5 0 -19 -3 -33 -7 l-25 -6 20 23 20 23 -23 -12 c-12 -7 -22 -8 -21 -4 3 20
-2 34 -10 29 -5 -4 -12 0 -14 6 -3 8 -6 6 -6 -5 -1 -16 -34 -37 -53 -33 -4 0
-14 -8 -23 -19 -14 -17 -16 -18 -11 -2 3 10 2 16 -3 12 -5 -3 -12 1 -14 7 -3
7 -6 -2 -6 -21 l-1 -33 -47 6 c-34 5 -44 4 -33 -3 8 -6 23 -11 33 -11 9 0 17
-4 17 -10 0 -13 -52 -38 -67 -33 -7 3 -19 -1 -28 -9 -36 -33 -47 -40 -52 -34
-4 3 2 16 13 28 l19 22 -28 -17 c-15 -10 -31 -16 -35 -13 -5 3 -14 -4 -21 -16
-7 -11 -8 -17 -2 -14 5 4 12 2 16 -4 10 -17 -22 -11 -36 7 -11 13 -11 17 -1
20 6 3 10 9 7 14 -4 5 5 20 19 34 28 28 34 41 14 28 -7 -4 -19 -8 -26 -9 -14
-2 -13 4 2 51 4 11 -5 -2 -20 -30 -16 -27 -29 -65 -31 -84 -1 -19 -9 -39 -18
-43 -8 -5 -15 -16 -15 -24 0 -9 -16 -32 -35 -51 -20 -20 -34 -42 -31 -49 3 -9
-10 -22 -37 -36 -23 -11 -36 -23 -30 -25 9 -3 10 -10 3 -24 -7 -13 -7 -19 0
-19 18 0 11 -22 -10 -27 -23 -6 -26 -19 -7 -26 7 -4 6 -6 -4 -6 -9 -1 -19 -8
-23 -16 -4 -13 -2 -13 14 -5 10 5 29 9 42 9 17 -1 18 -3 6 -6 -10 -2 -18 -9
-18 -14 0 -6 -4 -7 -10 -4 -5 3 -10 -1 -10 -9 0 -17 -34 -30 -52 -21 -7 4 -4
-1 6 -9 11 -9 29 -16 40 -16 18 0 19 2 6 11 -11 8 -7 9 19 5 30 -5 32 -4 20
11 -13 15 -10 16 26 9 22 -4 48 -9 58 -12 9 -3 17 -1 17 5 0 5 -8 12 -17 15
-10 3 4 3 32 1 59 -6 50 9 -15 23 -38 8 -40 10 -15 11 17 1 39 8 49 16 11 8
25 15 30 15 6 0 5 -4 -3 -9 -9 -6 -4 -10 18 -13 17 -2 31 -1 31 4 0 4 10 9 23
9 15 1 10 4 -13 9 -30 6 -26 8 28 9 46 1 64 5 68 16 4 8 18 16 33 16 20 1 22
2 6 6 -17 5 -15 7 10 19 26 12 27 13 5 8 -18 -4 -21 -2 -10 5 44 27 390 36
469 12 19 -6 38 -8 42 -5 5 3 9 1 9 -5 0 -6 8 -8 18 -5 16 5 15 5 -1 -6 -10
-6 -30 -14 -45 -16 -120 -20 -157 -28 -227 -46 -147 -37 -365 -169 -365 -221
0 -10 -4 -15 -10 -12 -5 3 -10 1 -10 -6 0 -7 -7 -20 -15 -29 -22 -24 -31 -80
-13 -80 8 0 19 5 26 12 9 9 12 8 12 -6 0 -25 -19 -58 -31 -51 -15 10 -11 0 11
-25 19 -22 60 -35 60 -19 0 4 9 5 19 2 10 -3 28 0 38 5 18 10 19 8 15 -21 -4
-31 -4 -31 12 -12 8 11 16 15 16 8 0 -7 5 -13 11 -13 8 0 8 4 1 13 -18 21 -3
67 21 67 6 0 2 -7 -9 -16 -18 -15 -18 -15 11 -9 37 8 43 14 26 25 -8 4 -15 22
-16 39 -1 16 2 28 7 25 4 -3 8 -12 8 -20 0 -8 7 -14 16 -14 8 0 12 4 9 10 -11
17 15 89 36 101 19 10 20 9 9 -13 -9 -19 -6 -17 17 7 15 17 24 25 19 18 -11
-17 0 -16 29 3 23 15 23 15 35 -39 14 -69 55 -134 108 -171 38 -26 47 -28 121
-25 90 5 114 17 168 87 37 48 51 117 36 174 -14 52 -2 67 32 39 15 -11 35 -21
44 -21 9 0 24 -11 34 -24 29 -38 105 -113 122 -120 18 -6 20 -27 4 -43 -9 -9
-7 -11 9 -7 27 8 62 -12 62 -36 0 -10 -8 -21 -17 -23 -11 -3 -7 -5 10 -6 24
-1 27 3 27 30 0 28 -33 89 -52 97 -4 2 -8 9 -8 16 0 7 -9 21 -20 31 -11 10
-19 23 -17 29 2 6 -5 16 -17 23 -17 10 -18 12 -4 13 9 0 20 -4 23 -10 11 -18
26 -10 36 20 11 29 29 41 29 20 0 -6 12 -22 28 -36 16 -14 20 -22 10 -18 -23
8 -22 3 2 -41 11 -20 20 -42 20 -50 0 -8 5 -15 10 -15 6 0 10 -15 10 -32 0
-56 24 -72 58 -41 29 28 12 209 -25 254 -7 8 -13 21 -13 27 0 6 -22 33 -49 60
-48 49 -53 62 -23 62 8 0 28 15 45 33 19 20 32 27 34 20 6 -17 32 -16 74 1 19
7 39 11 46 9 6 -2 15 2 19 9 4 7 4 10 -1 6 -4 -4 -16 -3 -27 3 -18 10 -18 11
-3 23 16 11 14 14 -14 25 -17 8 -31 17 -31 22 0 12 7 11 32 -2 20 -11 20 -10
-2 22 -23 32 -14 32 24 0 18 -15 19 -15 13 7 -5 20 -2 22 16 17 19 -6 19 -4
-4 12 -14 10 -24 24 -22 31 3 6 -2 12 -11 12 -9 0 -16 5 -16 11 0 13 39 2 58
-17 25 -26 23 -14 -4 21 -14 19 -31 35 -36 35 -5 0 -6 -4 -3 -10 11 -18 -29
-11 -60 11 -26 18 -27 20 -6 14 16 -5 21 -4 17 4 -4 6 -15 11 -24 11 -9 0 -24
5 -32 10 -11 7 -5 9 20 5 27 -4 30 -3 15 4 -11 5 -31 10 -45 11 -25 1 -25 1
-2 10 12 5 22 11 22 12 0 2 -39 3 -87 2 -100 -1 -132 4 -111 17 8 6 -2 9 -29
9 -23 0 -44 4 -47 8 -3 5 9 7 27 5 26 -3 28 -1 12 6 -11 5 -30 10 -41 10 -12
1 -27 7 -33 15 -14 17 -74 19 -64 2 4 -6 -6 -1 -21 12 -22 16 -32 19 -42 11
-7 -6 -23 -8 -35 -4 -16 5 -19 4 -14 -5 5 -9 4 -11 -4 -6 -6 4 -9 11 -6 16 3
4 -8 16 -23 25 -15 10 -21 12 -14 4z m-77 -493 c-10 -12 -4 -16 36 -21 80 -10
91 -14 98 -35 4 -11 11 -18 16 -14 5 3 7 9 4 14 -3 4 4 6 16 3 16 -4 17 -8 7
-14 -9 -6 -4 -9 15 -9 15 0 27 -5 27 -12 0 -6 3 -8 6 -5 7 7 41 -8 64 -29 8
-8 30 -26 48 -40 26 -21 31 -22 26 -7 -6 17 -6 17 8 -1 17 -22 13 -55 -6 -52
-7 1 -26 13 -43 26 -16 14 -50 38 -76 54 -26 17 -47 33 -47 38 0 4 -6 5 -14 2
-8 -3 -17 0 -21 5 -3 6 -11 9 -16 5 -5 -3 -15 -2 -22 3 -31 23 -259 19 -277
-5 -3 -4 -23 -8 -44 -9 -22 -2 -43 -8 -46 -14 -4 -6 -10 -10 -14 -10 -25 4
-134 -40 -175 -71 -31 -24 -40 -23 -33 4 4 18 2 20 -14 15 -18 -6 -18 -6 1 6
10 7 31 23 46 37 15 14 37 26 50 28 13 1 29 9 36 18 7 10 19 13 32 9 17 -5 21
-2 21 14 0 12 2 21 5 21 3 0 38 8 78 19 107 28 160 34 151 19 -6 -9 -3 -9 9 1
14 11 17 11 17 0 1 -10 4 -8 11 4 5 9 15 17 21 17 7 0 6 -5 -1 -14z"/>
<path d="M6950 10737 c0 -4 -11 -5 -23 -2 -13 4 -51 -1 -84 -9 -73 -19 -76
-19 -67 -4 4 7 -6 2 -23 -10 -17 -12 -36 -22 -43 -22 -6 0 -8 -5 -4 -12 4 -6
3 -8 -3 -5 -9 6 -22 -10 -27 -33 -5 -17 -29 -51 -33 -46 -3 3 0 12 7 21 7 8 8
15 3 15 -15 0 -44 -36 -36 -43 3 -4 -3 -17 -14 -30 -12 -12 -28 -39 -37 -59
-8 -21 -20 -38 -26 -38 -6 0 -9 -4 -5 -10 3 -5 12 -7 20 -3 24 8 18 -23 -7
-41 -13 -9 -17 -14 -9 -10 11 5 13 3 7 -11 -5 -14 -4 -16 7 -7 8 7 17 9 20 5
4 -3 -1 -12 -11 -19 -11 -9 -13 -13 -4 -14 7 0 10 -4 7 -10 -10 -16 5 -12 36
11 16 11 29 27 29 35 0 19 16 18 24 -2 4 -11 16 -15 40 -13 19 2 38 0 42 -4 4
-4 20 -7 36 -7 15 0 28 -5 28 -11 0 -5 -4 -7 -10 -4 -6 4 -10 -6 -10 -23 0
-20 -9 -35 -30 -50 -16 -12 -32 -22 -35 -22 -8 0 -30 -19 -72 -62 -45 -47 -66
-77 -68 -97 -1 -9 -7 -27 -14 -40 -9 -17 -10 -21 -1 -16 9 6 9 3 2 -11 -10
-19 -16 -80 -13 -119 2 -20 2 -20 16 -1 8 10 12 23 9 27 -3 5 0 9 5 9 6 0 11
7 11 15 0 8 7 15 16 15 10 0 14 6 10 15 -3 8 -1 15 4 15 6 0 10 7 10 15 0 26
31 78 63 108 27 24 32 25 40 11 6 -11 2 -23 -15 -41 -23 -26 -8 -23 23 4 14
12 17 12 23 -3 4 -11 -5 -27 -30 -50 -19 -19 -32 -34 -27 -34 4 0 1 -6 -7 -13
-20 -16 -42 -66 -35 -78 10 -15 25 -10 19 5 -7 18 40 50 60 43 8 -3 22 -19 30
-34 l14 -29 -34 4 c-19 2 -34 2 -34 -2 0 -11 59 -36 65 -27 3 6 18 6 38 0 42
-12 46 -11 24 6 -11 7 -25 11 -32 9 -8 -3 -17 8 -25 30 -6 19 -18 40 -26 46
-19 16 -18 34 1 26 8 -3 15 -1 15 3 0 5 -6 12 -12 14 -10 4 -10 6 -1 6 6 1 19
-9 28 -21 15 -21 16 -21 13 -3 -2 13 2 19 11 17 16 -3 43 17 36 29 -9 13 63
72 111 90 24 9 41 12 37 6 -4 -7 0 -8 11 -4 15 6 17 4 11 -10 -17 -40 -17
-124 -1 -166 44 -116 198 -178 304 -123 56 29 132 133 132 181 0 8 4 15 9 15
5 0 11 9 13 21 3 18 6 17 38 -15 19 -19 40 -36 47 -36 17 0 33 -33 33 -70 0
-18 6 -33 15 -36 22 -9 18 -23 -7 -33 -20 -7 -16 -10 23 -16 27 -4 46 -12 45
-18 -3 -22 -17 -37 -28 -31 -6 4 -8 2 -5 -3 4 -6 20 -13 36 -15 17 -2 28 -1
26 3 -9 13 20 28 35 19 34 -22 126 -3 93 19 -13 8 -27 43 -24 59 3 21 -28 64
-41 56 -7 -4 -8 -3 -4 4 12 20 30 14 56 -18 17 -20 29 -27 38 -21 10 6 11 13
4 27 -15 26 -25 58 -24 67 1 4 -3 7 -8 7 -6 0 -10 9 -10 19 0 11 -5 23 -10 26
-6 4 -9 12 -8 18 3 12 -73 86 -127 123 -57 39 -260 108 -357 121 -21 3 -35 9
-32 14 3 5 -6 9 -20 9 -28 0 -56 9 -56 19 0 3 21 7 47 8 26 1 54 5 62 9 24 9
117 9 201 0 54 -6 69 -11 55 -16 -14 -6 -2 -9 38 -9 32 -1 68 -6 80 -13 12 -7
34 -11 50 -9 15 1 27 -2 27 -8 0 -5 -12 -12 -27 -14 -16 -2 1 -5 37 -6 36 -1
74 -7 85 -12 15 -7 10 -8 -20 -4 -39 5 -39 5 -15 -9 l25 -14 -40 -5 c-35 -3
-34 -4 15 -6 43 -2 51 -4 35 -12 -15 -7 -10 -8 18 -4 22 4 37 2 37 -4 0 -6 7
-8 15 -5 8 4 23 3 33 -1 9 -5 26 -10 37 -12 11 -2 24 -8 29 -13 15 -15 46 -12
46 5 0 8 12 18 26 21 l26 7 -31 28 c-18 16 -32 32 -33 36 -2 4 -9 7 -18 5 -11
-3 -9 1 4 11 17 12 17 14 3 20 -13 5 -15 14 -11 39 4 25 3 29 -5 18 -9 -13
-14 -11 -37 11 -29 29 -25 60 4 37 15 -11 15 -11 4 3 -7 10 -21 14 -37 11 -17
-3 -27 1 -31 12 -3 9 -17 16 -29 16 -27 0 -42 16 -23 23 8 3 6 7 -7 13 -11 4
-30 15 -43 25 -13 10 -29 16 -37 13 -7 -3 -16 0 -20 6 -5 8 -10 8 -21 0 -10
-9 -19 -7 -40 9 l-27 21 35 0 c24 0 41 7 54 23 10 12 12 16 4 10 -16 -15 -60
-18 -60 -5 0 5 10 14 23 20 20 11 19 11 -11 6 -21 -4 -39 -1 -49 8 -14 11 -16
11 -8 -1 7 -12 1 -13 -31 -7 -21 4 -47 9 -56 10 -10 1 -21 6 -25 11 -5 4 -2 5
5 1 24 -14 11 1 -20 24 -18 12 -27 17 -20 9 40 -43 -14 -44 -60 -1 -30 28 -39
20 -11 -10 10 -11 12 -18 4 -18 -7 0 -23 12 -36 28 -13 15 -25 21 -25 14 0 -9
-5 -10 -19 -3 -33 18 -76 16 -112 -6 -19 -11 -45 -19 -59 -18 -14 2 -31 4 -37
4 -7 1 -13 8 -13 17 0 8 -4 13 -9 9 -5 -3 -12 -1 -16 5 -10 16 -26 11 -23 -7
2 -12 -3 -18 -15 -16 -11 0 -16 -4 -13 -12 6 -17 -29 -8 -45 11 -10 12 -8 13
7 8 16 -6 17 -5 7 7 -20 21 -15 29 20 30 31 0 31 1 7 10 -27 11 -140 8 -140
-4z m321 -462 c8 -5 10 -4 5 4 -6 8 4 10 36 5 55 -9 81 -22 71 -37 -5 -9 -3
-9 8 0 19 15 72 2 101 -24 11 -10 23 -18 26 -18 4 0 6 -5 4 -12 -1 -7 5 -9 16
-6 11 2 26 -2 33 -10 8 -8 25 -18 37 -21 12 -4 22 -12 22 -17 0 -5 6 -9 14 -9
20 0 25 -22 10 -37 -17 -17 -54 -16 -73 1 -25 23 -178 96 -200 96 -11 0 -23 5
-26 11 -4 6 -14 8 -22 5 -8 -3 -28 0 -46 7 -34 13 -157 15 -219 3 -32 -6 -37
-5 -31 9 3 10 13 15 24 12 11 -3 17 -1 13 4 -3 5 2 9 10 9 9 0 16 5 16 11 0 7
9 9 24 5 15 -4 26 -1 29 7 5 14 95 16 118 2z"/>
<path d="M3243 9898 c10 -81 12 -90 29 -102 9 -6 17 -20 20 -31 2 -13 12 -20
28 -21 45 -1 48 -4 66 -53 10 -28 22 -47 27 -44 5 3 6 -4 2 -17 -5 -16 -3 -21
6 -18 7 2 18 23 24 46 5 23 19 48 29 55 18 13 17 17 -29 83 -69 98 -85 114
-133 135 -70 30 -76 27 -69 -33z"/>
<path d="M9002 9755 c-42 -18 -189 -168 -220 -223 -26 -48 -14 -57 17 -13 11
15 34 43 51 61 16 18 30 36 30 40 0 13 34 5 64 -15 16 -10 34 -20 40 -21 6 -1
20 -6 30 -10 16 -6 18 -4 13 9 -4 11 -1 17 8 17 8 0 15 8 15 18 0 13 12 22 38
30 60 18 73 32 66 69 -5 28 -10 32 -48 35 -22 3 -48 7 -56 11 -8 3 -30 0 -48
-8z"/>
<path d="M5407 8633 c-13 -27 8 -146 29 -163 7 -7 11 -16 9 -21 -3 -4 3 -17
15 -29 12 -12 20 -33 20 -54 0 -22 6 -36 16 -40 21 -8 24 -8 24 5 0 5 -4 7
-10 4 -5 -3 -10 0 -10 8 0 12 5 12 34 -2 29 -13 32 -18 20 -28 -11 -8 -12 -13
-4 -18 6 -4 23 6 37 22 16 16 24 21 20 11 -7 -19 22 -53 54 -63 9 -3 20 -12
23 -20 4 -12 1 -12 -20 -3 -27 13 -47 2 -24 -13 10 -6 4 -7 -20 -3 -19 4 -42
12 -50 18 -13 10 -13 9 -1 -6 7 -10 20 -18 27 -18 8 0 14 -4 14 -10 0 -6 3 -9
8 -8 13 3 62 -25 62 -36 0 -6 5 -4 10 4 8 12 12 13 19 1 7 -10 11 -9 23 8 8
11 18 18 21 14 4 -3 -1 -12 -11 -19 -24 -19 2 -18 39 2 19 9 29 21 25 30 -3 7
3 18 14 24 28 15 37 12 14 -4 -15 -12 -17 -17 -6 -27 8 -9 12 -9 12 -2 0 8 7
8 25 0 23 -11 30 -26 25 -52 -1 -5 8 -1 19 9 25 22 27 30 6 22 -8 -3 -15 -1
-15 3 0 9 24 21 40 21 4 0 11 -7 14 -16 4 -9 2 -13 -5 -8 -7 4 -10 1 -7 -7 3
-8 -2 -23 -11 -34 -15 -18 -15 -19 2 -6 9 7 17 10 17 5 0 -5 7 2 16 14 16 24
34 29 34 11 0 -7 8 -18 17 -25 10 -7 14 -16 10 -20 -4 -5 -12 -2 -16 5 -6 8
-11 9 -15 3 -10 -17 -14 -72 -5 -72 9 0 12 14 10 42 -2 12 4 15 19 11 11 -3
20 -9 20 -14 0 -5 4 -9 10 -9 5 0 7 8 4 18 -5 15 -4 15 6 2 9 -11 13 -12 17
-2 2 6 9 12 14 12 15 0 10 -22 -8 -35 -9 -7 -17 -22 -18 -33 -1 -17 1 -19 11
-11 8 6 12 16 11 22 -3 18 26 14 30 -3 4 -13 3 -13 -5 -1 -8 11 -10 8 -9 -12
1 -15 5 -27 8 -27 11 0 31 48 25 58 -3 6 -1 14 5 18 8 5 9 3 4 -6 -5 -8 -3
-11 6 -8 8 3 20 -2 27 -11 8 -9 11 -10 7 -3 -3 6 -1 12 4 12 15 0 13 -40 -4
-70 -8 -14 -14 -29 -14 -35 0 -5 6 1 14 15 l14 25 1 -33 c0 -21 4 -31 11 -27
10 7 6 -38 -7 -87 -5 -19 11 -33 21 -18 11 18 25 10 25 -14 0 -14 4 -27 8 -30
10 -6 7 78 -3 94 -5 8 -11 6 -22 -7 -13 -16 -14 -14 -8 20 4 23 2 44 -5 52 -7
8 -10 22 -7 32 4 14 5 13 6 -4 0 -13 5 -23 10 -23 14 0 8 49 -7 55 -7 3 -13
15 -12 27 4 51 1 57 -27 52 l-28 -4 25 14 c31 18 42 8 43 -40 l0 -39 12 40 c6
22 15 40 20 40 4 0 17 -13 29 -28 21 -28 16 -55 -12 -65 -10 -3 -10 2 0 22 9
22 9 29 -3 41 -13 13 -15 9 -13 -36 2 -29 9 -58 18 -68 21 -23 20 -51 0 -51
-15 0 -15 -2 -1 -23 10 -16 12 -28 6 -40 -6 -11 -6 -24 1 -37 15 -29 23 -25
16 8 -4 18 -4 22 3 13 5 -7 14 -12 21 -9 9 3 9 8 -3 20 -12 12 -13 18 -4 28 9
10 9 14 0 17 -7 3 -13 11 -13 19 0 16 9 10 49 -29 18 -17 19 -17 23 7 3 16 1
23 -8 19 -20 -7 -54 29 -54 59 0 15 -5 30 -11 34 -6 3 -7 9 -2 13 15 11 33 60
27 76 -5 11 1 15 22 16 16 0 23 3 17 6 -7 2 -13 12 -13 20 0 12 3 13 14 4 11
-9 12 -7 9 13 -3 13 0 27 6 30 7 5 11 -3 12 -21 1 -17 3 -21 6 -10 2 9 8 17
13 17 5 0 7 8 4 18 -5 13 -4 14 4 3 8 -11 13 -8 26 15 16 28 17 28 12 4 -6
-31 5 -52 23 -41 9 6 10 11 2 15 -17 11 -13 36 6 36 14 0 12 4 -7 25 -28 30
-13 34 18 4 19 -17 25 -18 36 -7 14 14 4 30 -24 40 -11 3 -10 6 3 11 9 3 23
-1 33 -10 12 -12 18 -13 23 -4 5 8 16 4 35 -14 16 -14 26 -29 22 -32 -3 -3
-15 2 -26 12 -11 10 -22 16 -25 13 -6 -6 46 -44 56 -41 3 1 4 -9 1 -22 -3 -18
0 -25 12 -25 19 0 21 16 4 23 -7 3 -4 6 7 6 11 0 31 -6 45 -14 21 -12 22 -14
6 -15 -18 0 -18 -1 -1 -20 18 -20 8 -29 -11 -10 -15 15 -56 21 -52 8 2 -6 13
-13 24 -14 10 -2 31 -6 47 -10 29 -7 38 10 10 20 -12 5 -13 10 -5 18 16 16 43
2 36 -19 -5 -16 -4 -16 6 1 10 15 9 20 -1 27 -8 5 -19 9 -25 9 -6 0 -15 16
-21 35 -6 20 -7 35 -2 35 5 0 9 -7 9 -15 0 -10 10 -15 28 -15 24 1 25 2 10 14
-22 16 -23 30 -3 22 8 -3 15 -1 15 4 0 6 -6 10 -13 10 -7 0 -20 9 -30 20 -23
27 -11 25 29 -5 36 -27 49 -32 38 -12 -5 8 -2 7 10 -2 13 -11 14 -16 4 -22
-10 -7 -9 -9 5 -9 9 0 17 -4 17 -10 0 -5 5 -10 10 -10 11 0 -4 31 -29 63 -9
10 -10 17 -3 17 6 0 14 -4 17 -10 3 -5 14 -10 23 -10 12 1 8 6 -11 16 -19 10
-32 12 -46 5 -14 -8 -23 -6 -37 12 -11 12 -12 16 -4 10 22 -17 48 0 32 20 -10
11 -9 17 2 27 9 6 19 9 24 6 5 -3 19 24 31 61 23 71 20 83 -25 83 -11 0 -29 8
-40 19 -14 13 -26 16 -36 10 -11 -6 -24 -2 -40 10 -16 13 -29 16 -38 11 -8 -5
-21 -5 -31 1 -11 6 -20 5 -24 -1 -3 -5 -12 -7 -20 -3 -8 3 -15 0 -15 -6 0 -6
-5 -11 -11 -11 -5 0 -7 5 -3 12 5 7 3 8 -6 3 -7 -4 -16 -2 -22 6 -7 10 -8 8
-5 -9 3 -12 1 -20 -3 -17 -13 8 -55 -39 -52 -57 2 -9 -6 -22 -18 -28 -16 -9
-20 -18 -16 -36 5 -18 2 -24 -10 -24 -9 0 -14 -6 -11 -12 3 -8 -6 -14 -22 -15
-14 -2 -49 -5 -78 -9 -44 -5 -54 -3 -73 16 -22 22 -29 20 -44 -15 -3 -6 -8 -4
-14 4 -7 9 -12 10 -16 2 -5 -8 -13 -8 -27 -1 -10 6 -25 10 -32 9 -27 -3 -48 2
-42 10 7 12 -15 26 -24 15 -9 -13 -31 -16 -31 -3 0 5 -5 7 -12 3 -6 -4 -8 -3
-4 4 3 6 -4 18 -16 26 -12 9 -18 16 -13 17 6 1 -1 4 -15 8 -15 4 -24 14 -24
24 1 9 -3 14 -9 10 -6 -4 -8 0 -4 10 4 10 -1 18 -14 22 -10 4 -19 11 -19 16 0
5 -10 14 -22 20 -13 6 -39 19 -58 30 -33 18 -35 18 -42 1 -3 -9 -7 -12 -7 -5
-1 17 -59 27 -76 13 -8 -7 -15 -8 -15 -3 0 5 -9 9 -20 10 -11 1 -19 -1 -19 -5
3 -19 -2 -33 -9 -28 -5 3 -25 -9 -45 -25 -20 -17 -42 -27 -47 -24 -6 4 -22 8
-35 9 -17 2 -22 -1 -19 -13 2 -9 -5 4 -17 28 -12 25 -22 55 -23 68 -1 22 -11
31 -19 16z"/>
<path d="M6880 7994 c-11 -12 -11 -15 0 -12 7 2 15 -3 17 -9 6 -17 -18 -16
-41 2 -11 8 -27 15 -35 15 -13 -1 -12 -4 3 -15 15 -12 16 -15 5 -15 -9 0 -19
3 -23 7 -3 4 -17 8 -29 10 -20 2 -19 0 8 -22 17 -14 32 -20 33 -15 2 6 8 7 14
4 6 -4 14 0 19 7 6 10 9 11 9 2 0 -7 10 -13 23 -13 12 0 29 -5 37 -11 11 -8 4
-9 -27 -6 -40 5 -59 -6 -30 -16 6 -2 9 -8 5 -12 -4 -4 -14 -2 -23 5 -30 25
-25 2 7 -29 33 -32 54 -39 60 -19 3 8 12 9 36 0 19 -6 32 -7 32 -1 0 5 5 8 12
7 7 -2 13 8 13 23 1 14 -4 26 -10 26 -35 0 -55 4 -55 13 0 6 10 10 23 11 24 1
18 4 -26 13 -15 4 -25 11 -22 17 4 5 2 16 -5 24 -9 11 -7 12 12 8 18 -4 20 -3
8 6 -21 15 -35 14 -50 -5z"/>
<path d="M7080 7655 c10 -12 8 -16 -11 -23 -22 -8 -22 -9 8 -15 17 -3 30 -12
30 -21 0 -8 -3 -14 -6 -12 -3 2 -17 0 -30 -5 -15 -6 -21 -14 -17 -25 3 -8 2
-12 -4 -9 -6 3 -10 1 -10 -5 0 -7 -7 -9 -16 -6 -10 4 -14 1 -11 -6 2 -7 11
-12 20 -10 8 1 19 -3 23 -9 5 -9 2 -10 -10 -6 -13 5 -17 3 -13 -5 3 -9 -6 -13
-29 -14 -18 0 -31 3 -28 8 3 4 -5 9 -18 9 -83 5 -108 8 -124 17 -29 15 -135
31 -146 22 -2 -1 -12 -3 -23 -5 -19 -4 -45 -15 -97 -40 -16 -8 -28 -11 -28 -7
0 7 -53 32 -75 37 -5 1 -18 -3 -29 -8 -12 -6 -22 -5 -30 3 -8 8 -7 10 7 5 23
-10 22 8 -4 31 -17 15 -22 16 -29 4 -6 -10 -25 -14 -60 -12 -32 1 -49 -2 -45
-8 3 -5 -3 -10 -14 -10 -12 0 -21 7 -21 16 0 8 -5 12 -10 9 -6 -4 -8 -10 -5
-15 7 -11 -22 -17 -59 -11 -20 2 -24 6 -15 12 10 6 10 9 2 9 -6 0 -15 -4 -18
-10 -3 -5 -14 -10 -23 -9 -14 0 -13 2 3 9 17 6 14 9 -17 15 -25 5 -38 13 -38
24 0 13 -2 13 -9 2 -6 -9 -19 -12 -40 -8 -18 4 -31 2 -31 -3 0 -6 -5 -10 -11
-10 -6 0 -9 7 -5 15 3 8 1 15 -4 15 -6 0 -10 -5 -10 -11 0 -7 -10 -9 -25 -7
-14 3 -28 2 -30 -2 -3 -5 -15 -6 -28 -3 -18 5 -20 3 -10 -7 16 -17 54 -21 71
-8 8 7 12 7 12 -1 0 -7 4 -10 9 -7 5 3 11 0 14 -8 3 -8 -2 -16 -13 -19 -11 -3
-20 -1 -22 4 -2 5 -26 11 -53 13 -28 3 -53 5 -57 5 -4 1 -5 7 -2 14 2 7 -4 22
-16 32 -11 10 -20 13 -20 7 0 -14 -31 -52 -42 -52 -5 0 -8 14 -8 30 0 27 -3
30 -30 30 -20 0 -30 -5 -30 -15 0 -14 -21 -19 -87 -18 -13 0 -23 -4 -23 -9 0
-5 -10 -8 -22 -7 -13 1 -30 -1 -38 -4 -8 -3 -31 -8 -50 -9 -21 -2 -34 -8 -33
-15 2 -7 -4 -10 -12 -7 -9 4 -15 1 -15 -7 0 -10 -3 -10 -11 -2 -9 9 -18 8 -35
-4 -13 -8 -28 -12 -33 -9 -5 4 -12 2 -16 -4 -3 -5 -16 -10 -27 -10 -21 0 -21
0 2 25 27 28 17 34 -13 8 -20 -17 -20 -17 -14 1 6 14 4 17 -10 12 -16 -5 -16
-5 1 8 10 8 15 19 12 25 -4 5 4 12 16 14 21 4 20 4 -3 6 -15 0 -32 8 -39 16
-7 8 -16 12 -21 9 -5 -3 -6 2 -3 10 7 19 -12 22 -20 4 -3 -7 -4 -1 -1 14 4 22
1 26 -14 25 -11 -1 -17 -6 -14 -14 3 -7 -2 -24 -11 -38 -13 -20 -21 -23 -34
-16 -13 7 -23 2 -45 -22 -16 -18 -26 -26 -22 -19 3 6 1 12 -5 12 -7 0 -9 -7
-6 -16 3 -9 6 -17 6 -20 0 -2 8 0 18 3 15 6 16 5 2 -13 -8 -10 -21 -25 -27
-32 -7 -7 -13 -17 -13 -22 0 -12 36 -31 44 -23 3 3 6 0 6 -7 0 -11 3 -11 12
-2 9 9 17 7 35 -10 13 -12 23 -17 23 -11 0 5 7 10 15 10 8 0 15 -4 15 -9 0 -4
5 -8 11 -8 7 0 20 -10 30 -22 11 -11 19 -18 19 -14 0 4 14 -7 32 -24 19 -19
38 -30 49 -27 12 3 16 0 12 -10 -4 -11 0 -13 23 -7 26 7 28 6 16 -9 -8 -10
-11 -25 -7 -38 7 -20 8 -20 17 -6 5 10 15 17 23 17 8 0 26 11 41 25 31 29 53
34 33 8 -27 -34 -39 -44 -47 -39 -4 2 -8 -9 -7 -25 0 -32 9 -38 19 -13 3 8 10
13 15 10 5 -3 14 1 21 9 7 8 9 15 4 15 -5 1 11 10 35 21 31 15 46 18 51 9 8
-13 61 -17 79 -6 6 4 11 3 11 -2 0 -5 10 -10 23 -10 12 0 27 -1 32 -2 26 -6
43 2 54 27 7 15 15 22 19 17 4 -6 24 -9 46 -8 21 1 52 -3 68 -8 20 -7 33 -7
40 0 13 13 68 -4 68 -21 0 -7 7 -4 15 7 16 21 82 30 103 14 8 -7 17 -6 27 2
11 9 38 11 93 7 69 -5 80 -4 95 13 15 18 19 18 58 5 23 -9 44 -13 47 -10 3 3
2 5 -2 5 -4 0 0 7 9 17 11 10 32 16 58 15 86 -3 163 -14 184 -28 30 -19 36
-18 28 6 -7 23 2 25 28 5 11 -7 25 -11 33 -8 8 3 22 -1 31 -8 15 -13 15 -12 4
9 -6 12 -16 22 -21 22 -6 0 -10 5 -10 11 0 6 15 1 34 -11 24 -14 37 -17 41 -9
4 6 16 9 26 6 10 -3 20 0 22 7 3 7 10 4 20 -8 13 -18 18 -19 56 -6 22 7 41 18
41 24 0 6 15 20 33 31 45 28 51 30 41 14 -10 -17 42 23 96 71 29 28 36 40 29
53 -5 9 -16 14 -23 11 -8 -3 -17 -1 -21 5 -3 6 0 11 7 11 8 0 15 13 16 31 2
27 0 30 -12 19 -13 -10 -20 -8 -40 8 -14 11 -22 22 -19 26 4 3 -2 13 -13 21
-25 19 -40 19 -24 0z"/>
<path d="M6085 6930 c5 -22 4 -23 -7 -9 -12 15 -23 15 -58 2 -8 -4 -19 -5 -25
-4 -5 1 1 -9 15 -21 16 -13 19 -19 8 -15 -11 4 -22 0 -28 -11 -9 -14 -10 -14
-5 6 4 13 2 22 -4 22 -6 0 -11 -5 -11 -11 0 -5 -5 -7 -10 -4 -6 4 -8 11 -5 16
4 5 -1 9 -10 9 -9 0 -13 5 -10 10 9 15 -8 12 -33 -6 -21 -14 -27 -12 -23 10 1
5 -5 4 -13 -3 -9 -7 -13 -17 -10 -22 8 -14 -9 -10 -34 7 -21 15 -25 15 -43 -2
-24 -22 -18 -30 10 -12 16 9 23 10 32 1 9 -9 7 -11 -10 -6 -15 4 -21 1 -21
-11 0 -10 6 -13 18 -9 14 5 14 3 -3 -14 -11 -11 -24 -18 -28 -16 -4 3 -14 -1
-22 -7 -8 -7 -15 -9 -15 -4 0 5 -5 2 -10 -6 -8 -12 -12 -11 -31 8 -20 22 -20
24 -3 43 9 10 14 19 10 19 -11 0 -60 -33 -73 -50 -10 -12 -11 -7 -7 25 4 29 3
36 -5 25 -5 -8 -7 -18 -5 -22 3 -4 -2 -8 -11 -8 -9 0 -14 -4 -11 -8 3 -5 -8
-8 -24 -8 -16 0 -32 6 -35 14 -3 8 -12 11 -24 7 -21 -6 -47 27 -36 45 3 6 -1
10 -10 10 -11 0 -15 -5 -11 -15 3 -8 2 -15 -3 -15 -4 0 -8 -7 -8 -15 0 -9 6
-14 14 -11 16 6 17 -6 2 -21 -12 -12 -3 -37 11 -28 5 3 12 0 15 -6 4 -5 13 -8
21 -5 8 3 13 2 13 -2 -3 -20 2 -25 12 -12 9 13 10 12 5 -2 -3 -10 -1 -18 4
-18 5 0 7 -8 3 -17 -5 -15 -3 -16 7 -6 11 10 16 7 27 -14 15 -29 17 -45 3 -23
-8 13 -10 12 -10 -2 0 -21 25 -24 34 -5 5 9 7 9 12 0 3 -8 16 -10 34 -6 20 3
34 0 45 -11 14 -14 13 -20 -5 -18 -3 0 -7 -9 -7 -21 -2 -15 0 -18 6 -9 7 11 9
10 14 -2 4 -9 4 -24 1 -33 -2 -10 1 -8 7 5 7 12 16 22 22 22 5 0 7 7 4 15 -4
8 -2 17 3 20 10 6 12 -5 13 -52 0 -36 17 -27 18 10 1 17 3 24 6 15 2 -10 8
-18 13 -18 5 0 14 8 20 18 8 14 9 12 4 -10 -6 -28 9 -40 19 -15 3 6 6 2 6 -10
1 -13 7 -23 16 -23 9 0 12 6 9 18 -5 16 -5 16 6 0 12 -20 36 -25 24 -6 -5 7
-3 8 7 2 23 -14 67 -13 73 3 3 8 1 11 -4 8 -6 -3 -7 1 -4 9 3 9 10 13 15 10 5
-3 9 2 9 11 0 9 -4 13 -10 10 -5 -3 -10 -2 -10 3 0 6 7 12 15 16 9 3 15 0 15
-9 0 -8 4 -15 8 -15 5 0 14 -11 20 -25 12 -26 12 -27 -27 -37 -16 -5 -26 -48
-11 -48 6 0 10 4 10 10 0 5 7 7 16 3 8 -3 13 -12 10 -19 -8 -20 11 -64 26 -63
10 0 10 2 1 6 -7 2 -13 9 -13 14 0 6 4 8 9 4 5 -3 12 -1 16 5 3 5 -3 10 -14
10 -23 0 -26 7 -11 30 9 13 11 13 20 0 9 -14 11 -13 14 9 0 5 5 13 10 18 5 5
6 3 2 -5 -4 -7 -1 -15 8 -18 9 -3 16 -12 16 -20 0 -8 5 -14 10 -14 6 0 10 8 8
18 -2 11 3 16 15 14 17 -3 24 12 10 21 -5 2 -3 2 4 1 7 -2 15 1 18 6 4 6 12
10 18 9 9 0 9 -2 0 -6 -7 -2 -13 -9 -13 -14 0 -6 7 -6 18 -1 9 5 23 7 30 5 6
-3 12 3 12 12 0 9 4 14 10 10 5 -3 7 -12 4 -20 -4 -9 1 -13 15 -12 16 1 20 6
15 20 -4 13 -2 17 5 13 6 -4 11 -2 11 3 0 6 -9 11 -19 11 -14 0 -18 5 -14 20
8 30 60 23 76 -10 11 -22 57 -37 57 -18 0 4 -9 8 -19 8 -10 0 -21 6 -24 14 -8
21 4 56 19 56 8 0 14 5 14 11 0 6 5 7 13 2 18 -11 39 -10 63 3 12 7 31 10 43
7 14 -4 26 0 34 12 12 15 14 15 26 1 10 -12 17 -13 27 -5 9 7 21 6 42 -5 29
-15 29 -15 24 11 -3 16 -1 24 6 20 5 -4 12 0 15 7 3 8 1 17 -6 20 -7 2 -2 8
11 12 12 3 21 13 20 21 -2 9 7 19 20 24 13 5 22 5 22 -1 0 -6 7 -10 15 -10 9
0 15 9 15 21 0 16 5 20 18 17 14 -4 18 0 18 16 -1 12 5 20 12 19 14 -3 14 -6
3 35 -6 20 -6 32 0 32 5 0 9 -9 9 -19 0 -11 4 -22 9 -25 14 -9 0 42 -15 55
-11 9 -14 9 -14 0 0 -7 -4 -9 -10 -6 -6 3 -7 -1 -4 -9 4 -12 0 -16 -17 -17
-13 0 -18 -3 -11 -6 24 -10 11 -24 -18 -19 -19 2 -30 0 -30 -7 0 -7 -5 -4 -11
6 -5 9 -15 17 -21 17 -6 0 -5 -7 3 -17 12 -14 12 -16 -2 -11 -13 5 -15 1 -12
-20 l5 -27 -20 24 c-19 23 -20 24 -26 4 -3 -11 -13 -20 -20 -20 -8 0 -12 6 -9
12 5 14 -42 29 -57 20 -6 -4 -10 3 -10 14 0 15 4 19 18 14 15 -6 15 -5 3 10
-10 13 -17 14 -33 6 -15 -8 -24 -7 -40 7 -14 13 -19 14 -16 4 2 -7 -5 -16 -14
-18 -11 -2 -18 2 -18 12 0 19 -20 22 -21 4 0 -7 -4 -4 -9 7 -7 18 -8 19 -15 3
-4 -10 -16 -18 -26 -18 -13 0 -17 5 -12 18 6 15 5 15 -10 3 -10 -7 -35 -14
-57 -15 -22 0 -40 -4 -40 -9 0 -11 -71 -6 -87 6 -7 5 -17 6 -23 2 -6 -4 -18 1
-25 11 -14 18 -14 18 -15 -1 -1 -18 -2 -17 -16 5 l-15 25 6 -25z"/>
<path d="M7840 6625 c-7 -14 -19 -25 -27 -25 -7 0 -13 -7 -13 -15 0 -8 -8 -15
-17 -15 -15 0 -13 -4 7 -20 23 -18 24 -20 5 -21 -11 -1 -30 -1 -42 0 -13 1
-23 -3 -23 -9 0 -15 -25 -40 -40 -40 -7 0 -9 -7 -6 -16 3 -9 6 -20 6 -26 0 -6
7 -7 16 -4 10 4 14 1 11 -6 -2 -7 -14 -12 -27 -10 -16 3 -20 0 -14 -10 6 -10
4 -10 -10 1 -13 11 -14 16 -4 22 7 4 10 10 8 13 -10 10 -53 -31 -45 -44 6 -9
9 -9 16 1 7 11 9 11 9 1 0 -7 -12 -17 -27 -23 l-27 -10 30 -21 c16 -11 21 -17
10 -14 -31 10 -96 -14 -96 -37 0 -10 -9 -21 -20 -24 -11 -3 -20 -12 -20 -20 0
-10 -5 -11 -19 -4 -24 13 -35 41 -21 55 7 7 10 5 10 -6 0 -22 12 -28 39 -21
18 5 21 11 16 32 -5 23 -2 27 20 29 59 4 59 4 39 19 -22 16 -41 17 -47 1 -3
-8 -9 -3 -15 12 -5 14 -13 24 -18 23 -27 -6 -52 10 -50 33 0 13 5 24 10 24 4
0 6 -9 3 -19 -4 -15 2 -20 24 -23 59 -9 64 31 8 59 -13 7 -24 16 -24 20 -1 4
-6 18 -13 30 -9 17 -9 22 3 26 8 4 16 -2 20 -13 3 -10 12 -21 20 -24 8 -3 15
-12 15 -21 0 -8 4 -15 9 -15 14 0 1 38 -15 44 -8 3 -14 11 -14 17 0 8 4 8 15
-1 24 -20 28 -6 5 15 -14 13 -20 14 -20 5 0 -9 -9 -5 -24 9 -18 17 -25 19 -29
9 -2 -7 -8 -1 -12 14 -4 16 -11 25 -16 22 -5 -3 -9 0 -9 5 0 16 26 13 44 -4
16 -17 51 -21 41 -5 -4 6 -11 8 -16 5 -5 -4 -9 2 -9 12 0 29 -50 23 -83 -10
-23 -24 -29 -47 -11 -47 3 0 2 5 -1 10 -3 6 -1 10 5 10 6 0 8 5 5 10 -10 17
12 11 26 -7 11 -13 11 -17 1 -21 -8 -2 -2 -14 18 -32 16 -15 30 -36 30 -46 0
-9 -3 -15 -6 -12 -3 4 -18 3 -33 -2 -31 -9 -61 4 -61 25 0 8 -4 15 -8 15 -4 0
-7 -12 -6 -27 1 -25 4 -27 40 -27 35 0 53 -9 54 -28 0 -3 -9 -4 -20 -1 -18 5
-24 -4 -22 -28 1 -3 -5 -6 -13 -6 -8 0 -11 7 -7 15 4 11 1 14 -11 9 -11 -4
-20 1 -28 14 -6 11 -13 18 -16 15 -4 -3 -16 2 -27 11 -12 9 -2 -2 22 -24 23
-22 42 -46 42 -53 0 -7 7 -10 15 -6 9 3 18 -1 21 -9 4 -8 11 -15 16 -15 6 0 8
7 4 15 -9 24 7 16 33 -17 25 -31 25 -31 2 -19 -12 7 -29 10 -36 7 -8 -3 -16 0
-19 7 -5 9 -8 9 -12 -1 -5 -11 -9 -11 -23 1 -30 26 -51 28 -51 5 0 -18 2 -19
17 -7 13 11 17 11 21 1 6 -20 33 -43 43 -37 5 4 6 -1 3 -10 -4 -10 1 -22 12
-30 11 -8 14 -15 8 -15 -18 0 -64 47 -64 66 0 12 -6 15 -22 11 -12 -4 -28 -1
-35 5 -9 7 -13 7 -13 0 0 -6 5 -14 11 -17 6 -4 8 -13 5 -20 -2 -7 1 -21 8 -31
7 -11 16 -28 19 -39 6 -16 3 -15 -13 5 -15 20 -20 21 -20 8 0 -9 5 -20 10 -23
6 -3 10 -11 10 -18 0 -8 -3 -8 -12 1 -16 16 -29 15 -26 0 2 -7 17 -18 33 -24
36 -13 43 -38 19 -65 -16 -17 -16 -22 -4 -30 13 -9 13 -10 0 -6 -8 2 -16 13
-18 24 -2 11 -13 25 -25 31 -17 8 -18 11 -5 11 9 1 20 -3 23 -9 12 -19 35 -10
35 13 0 17 -2 19 -9 8 -7 -12 -13 -12 -24 -3 -7 7 -17 9 -20 5 -4 -3 -13 0
-21 6 -11 10 -17 8 -30 -10 -8 -12 -12 -27 -9 -33 4 -7 8 -6 11 2 2 8 8 8 22
0 10 -7 16 -18 12 -26 -3 -9 -1 -13 5 -9 9 6 10 -8 4 -46 0 -5 -5 -5 -11 -2
-5 3 -10 1 -10 -5 0 -7 -7 -10 -14 -7 -11 4 -13 1 -9 -10 5 -11 0 -10 -15 5
-12 12 -22 26 -22 31 0 14 -43 21 -57 10 -16 -14 0 -49 22 -49 20 0 19 19 0
26 -8 4 -15 11 -15 17 0 25 38 -31 43 -63 3 -19 3 -29 0 -22 -2 6 -9 12 -14
12 -6 0 -6 -8 1 -19 5 -11 10 -26 9 -33 0 -7 -6 -2 -12 12 -6 14 -18 31 -27
38 -13 10 -12 11 4 5 13 -4 17 -3 12 5 -4 7 -14 12 -22 12 -8 0 -14 7 -14 15
0 8 -4 15 -10 15 -13 0 -13 -13 1 -27 15 -15 -21 -50 -49 -48 -14 1 -22 -4
-22 -14 -1 -11 -5 -8 -14 8 -9 16 -16 20 -20 12 -4 -6 -12 -9 -17 -6 -12 8
-12 4 6 -39 8 -20 12 -36 9 -36 -4 0 0 -8 7 -17 13 -16 12 -17 -3 -5 -20 16
-42 6 -34 -15 3 -8 1 -11 -4 -8 -6 3 -7 17 -4 30 3 13 0 26 -7 30 -9 6 -11 -5
-5 -48 4 -35 2 -57 -4 -57 -5 0 -6 8 -3 17 5 12 2 15 -10 10 -12 -5 -19 1 -23
18 -9 38 -27 31 -18 -7 6 -28 5 -31 -8 -20 -8 6 -18 9 -21 5 -4 -3 -7 0 -7 8
0 8 -9 23 -21 32 -20 18 -21 18 -13 -5 6 -20 5 -21 -10 -9 -18 15 -22 1 -4
-17 20 -20 19 -50 -2 -57 -15 -5 -18 -12 -14 -38 4 -22 2 -27 -4 -17 -5 8 -12
31 -16 51 -4 21 -13 42 -21 49 -8 7 -15 19 -15 27 0 8 -5 11 -11 7 -6 -3 -9
-19 -7 -35 3 -15 1 -26 -4 -23 -4 3 -8 14 -8 25 0 10 -4 19 -10 19 -13 0 -13
-1 6 -45 9 -22 13 -49 9 -66 -8 -34 -8 -34 -42 -12 -26 17 -27 17 -20 1 4 -11
2 -17 -5 -15 -6 1 -15 -9 -19 -23 -4 -16 -7 -19 -8 -7 -1 9 -6 17 -11 17 -7 0
-7 7 0 21 7 11 9 23 6 26 -3 4 -1 13 6 20 9 11 9 16 -2 23 -10 6 -18 4 -24 -7
-7 -13 -10 -13 -18 -2 -6 10 -8 5 -6 -16 2 -19 -2 -30 -10 -30 -7 0 -16 -6
-21 -13 -10 -16 -41 -5 -41 15 0 12 -3 11 -17 -3 -17 -16 -18 -16 -24 7 -6 24
-6 23 -15 -6 l-9 -30 -5 40 c-4 29 -9 39 -20 36 -8 -2 -25 -4 -36 -4 -12 0
-21 -4 -21 -11 1 -32 -4 -46 -18 -46 -9 0 -12 -6 -9 -15 5 -11 2 -13 -9 -9
-10 3 -13 12 -10 22 6 15 4 15 -14 -1 -23 -20 -33 -14 -34 22 -1 24 -2 24 -10
-6 -6 -22 -14 -30 -24 -27 -7 3 -13 11 -11 17 1 7 1 9 -1 5 -3 -5 -13 -8 -24
-8 -16 0 -18 3 -9 19 14 28 13 33 -9 22 -10 -6 -22 -7 -26 -3 -4 4 -4 -4 0
-18 7 -24 6 -24 -7 -6 -8 10 -20 16 -26 12 -6 -3 -13 2 -15 11 -4 14 -5 13 -6
-4 0 -12 -10 -27 -20 -33 -28 -15 -34 -13 -28 10 7 29 -11 36 -23 8 -10 -22
-10 -22 -7 5 3 15 0 27 -4 27 -5 0 -9 7 -9 15 0 8 -4 15 -10 15 -13 0 -13 -17
1 -26 8 -4 7 -9 -2 -15 -8 -4 -14 -14 -14 -21 -1 -7 -7 -12 -15 -10 -7 2 -16
-2 -20 -9 -4 -6 -13 11 -21 39 -7 28 -15 49 -19 47 -9 -6 1 -75 11 -75 5 0 9
-9 9 -20 0 -11 -5 -20 -10 -20 -6 0 -9 3 -9 8 3 19 -2 26 -11 12 -7 -12 -13
-9 -34 13 -14 16 -26 23 -26 17 0 -6 -4 -8 -10 -5 -5 3 -10 -3 -10 -14 0 -12
7 -21 15 -21 13 0 13 -3 3 -20 -14 -22 -51 -21 -56 3 -2 9 5 28 14 42 13 21
15 28 5 34 -7 5 -11 14 -10 22 3 18 -11 49 -22 49 -5 0 -9 -11 -9 -24 0 -14
-11 -37 -25 -52 -14 -15 -25 -33 -25 -40 0 -8 -4 -14 -10 -14 -5 0 -10 5 -10
10 0 6 -8 10 -19 10 -10 0 -26 10 -35 23 -12 15 -18 18 -22 10 -3 -7 -10 -13
-15 -13 -11 0 -1 50 12 65 5 5 8 25 8 45 l-1 35 -8 -38 c-4 -21 -12 -43 -19
-50 -14 -14 -14 -2 -1 24 14 24 -5 26 -19 2 -10 -16 -10 -15 -8 4 2 12 6 26
10 29 12 12 8 24 -8 24 -9 0 -12 6 -9 18 4 11 -1 9 -16 -8 -12 -14 -19 -19
-15 -12 3 6 2 12 -3 12 -6 0 -13 -11 -16 -24 -7 -27 -36 -44 -36 -21 0 8 -7
15 -15 15 -8 0 -15 -7 -15 -15 0 -8 -4 -15 -10 -15 -5 0 -10 -8 -10 -17 -1
-17 -1 -17 -11 0 -9 15 -7 22 10 33 24 17 28 34 8 34 -8 0 -13 9 -11 23 1 12
3 26 3 30 1 5 5 6 10 2 5 -3 12 -1 15 4 3 5 -3 11 -14 14 -11 3 -20 0 -20 -6
-1 -7 -12 -25 -26 -42 l-25 -30 15 39 c19 45 19 46 6 46 -5 0 -10 -6 -10 -14
0 -8 -5 -18 -11 -22 -8 -4 -9 1 -4 17 12 38 -17 6 -29 -33 -6 -18 -18 -34 -26
-36 -34 -6 -72 55 -41 66 8 3 11 0 7 -7 -4 -6 -1 -20 7 -31 13 -19 15 -19 29
-3 17 21 30 53 21 53 -3 0 -12 -8 -19 -17 -12 -16 -13 -15 -14 10 0 16 -4 26
-10 22 -14 -9 -12 8 3 24 10 11 7 12 -13 6 -30 -9 -51 -25 -46 -34 2 -3 -2
-14 -9 -24 -10 -14 -15 -15 -21 -6 -4 7 -2 15 4 17 7 2 10 8 6 13 -3 5 -1 9 4
9 6 0 19 16 31 35 11 19 16 35 12 35 -5 0 -11 -7 -14 -14 -3 -8 -20 -22 -38
-31 -25 -14 -33 -14 -40 -4 -6 10 -13 9 -30 -6 l-23 -20 17 24 c11 17 13 28 7
36 -7 9 -5 16 5 25 12 10 15 10 15 -1 1 -9 8 -6 19 9 11 12 25 22 33 22 7 0 2
-9 -12 -20 -34 -26 -22 -32 19 -9 27 15 31 20 18 25 -9 3 -14 10 -11 15 6 10
-25 0 -43 -14 -9 -6 -18 -5 -28 3 -12 10 -18 10 -32 -1 -17 -13 -17 -12 -4 4
12 15 12 20 2 26 -9 6 -5 10 13 15 14 3 26 10 26 15 0 14 -39 5 -60 -14 -11
-10 -23 -15 -27 -12 -3 4 -2 7 4 7 6 0 14 7 17 16 5 12 1 14 -15 9 -21 -7 -21
-7 1 23 14 19 35 33 56 37 19 3 34 11 34 17 0 6 -7 7 -17 3 -46 -19 -78 -25
-81 -15 -5 14 -42 13 -42 -1 0 -6 7 -8 16 -5 24 9 11 -17 -14 -30 -12 -6 -19
-14 -15 -17 3 -4 1 -7 -5 -7 -7 0 -12 7 -12 16 0 15 -10 14 -55 -2 -5 -3 -11
9 -12 26 -1 20 2 30 12 30 7 0 15 3 18 8 2 4 2 2 1 -5 -6 -25 34 -24 60 2 14
14 23 25 19 25 -3 0 5 8 18 19 l23 19 -24 -3 c-14 -2 -29 -4 -35 -5 -5 -1 -25
-2 -43 -1 -29 1 -32 3 -22 20 16 31 12 40 -20 39 -17 -1 -33 2 -37 5 -3 4 5 7
20 7 14 0 29 5 33 12 5 8 0 9 -14 6 -32 -9 -27 5 9 21 16 7 29 15 27 17 -7 7
-77 -19 -72 -27 2 -4 -10 -7 -27 -7 -31 1 -31 1 -8 14 13 7 32 13 42 14 9 0
17 5 17 11 0 6 -6 9 -13 6 -8 -3 -20 -1 -28 4 -11 7 -9 9 9 9 12 0 22 4 22 9
0 11 56 32 63 24 3 -3 3 5 0 17 -6 21 -7 21 -18 6 -7 -9 -16 -16 -22 -16 -5 0
-14 -5 -21 -12 -6 -6 -26 -13 -43 -15 -18 -2 -40 -9 -48 -17 -17 -14 -41 -11
-41 6 0 6 7 8 15 5 8 -4 17 -2 20 3 3 4 0 10 -7 12 -6 2 -9 11 -6 20 4 10 15
13 37 10 17 -2 28 -8 25 -13 -8 -14 18 -10 46 7 15 9 18 13 6 9 -16 -5 -17 -3
-6 10 8 9 8 15 2 15 -6 0 -14 -5 -17 -10 -5 -8 -11 -8 -20 0 -7 6 -21 7 -31 4
-15 -6 -17 -4 -7 6 12 13 7 40 -9 40 -5 0 -7 -9 -3 -19 4 -15 -3 -23 -37 -39
-24 -11 -51 -22 -60 -25 -10 -4 -18 -12 -18 -18 0 -8 4 -8 15 1 9 7 15 8 15 2
0 -14 -28 -23 -35 -12 -4 6 -3 15 0 20 3 6 -1 10 -10 10 -11 0 -15 -5 -11 -15
3 -10 1 -15 -7 -14 -6 1 -20 -1 -30 -6 -22 -9 -74 15 -56 26 8 5 8 8 0 13 -6
4 -9 12 -6 17 4 5 -1 9 -11 9 -13 0 -14 3 -4 15 10 13 9 15 -8 15 -12 0 -24 5
-28 12 -4 7 -3 8 4 4 7 -4 12 -3 12 1 0 5 -9 14 -20 21 -11 7 -20 19 -20 28 0
11 -6 14 -22 9 -18 -5 -19 -4 -8 4 18 12 15 14 -39 30 -44 13 -61 6 -61 -24 1
-18 28 -47 34 -36 10 15 34 2 32 -17 0 -9 6 -18 14 -18 33 -4 57 -16 69 -37
13 -21 13 -21 -6 -4 -11 9 -24 17 -29 17 -5 0 -22 7 -38 15 -16 9 -31 13 -34
10 -8 -7 19 -35 34 -35 8 0 14 -7 14 -15 0 -8 -3 -15 -7 -15 -8 0 -73 73 -73
83 0 4 -5 7 -12 7 -9 0 -9 -3 0 -12 7 -7 12 -27 12 -45 0 -33 14 -45 23 -20 3
6 10 -1 16 -17 6 -16 14 -26 18 -22 3 3 12 1 19 -5 10 -8 11 -16 3 -30 -7 -14
-6 -19 4 -19 9 0 15 -10 15 -25 0 -13 -4 -22 -9 -19 -5 3 -17 0 -26 -5 -10 -6
-15 -11 -10 -12 4 -1 12 -3 17 -4 6 -1 15 -3 20 -4 6 0 10 -14 10 -31 0 -23
-4 -28 -17 -24 -17 5 -17 5 0 -9 9 -8 16 -25 15 -37 -2 -13 3 -25 11 -28 8 -3
11 0 7 7 -4 6 -2 11 4 11 7 0 9 9 5 23 -5 19 -5 20 5 4 7 -10 9 -24 7 -31 -7
-16 9 -41 25 -41 7 0 14 -9 16 -20 2 -16 1 -17 -7 -5 -13 19 -22 10 -15 -17 3
-11 16 -26 30 -33 13 -7 31 -33 40 -57 20 -51 39 -58 30 -10 -6 32 -6 32 10 9
9 -14 14 -33 10 -46 -5 -21 14 -53 25 -42 2 2 5 -9 6 -26 1 -17 9 -39 18 -48
14 -15 14 -18 1 -23 -10 -4 -16 4 -21 31 -5 27 -16 43 -41 59 -32 21 -34 21
-34 3 0 -10 5 -22 10 -25 6 -3 10 -2 10 4 0 6 7 8 16 4 11 -4 13 -13 9 -33 -5
-22 -1 -32 16 -43 11 -9 18 -20 15 -25 -9 -15 4 -41 27 -54 21 -11 21 -11 4
15 -29 45 -17 72 22 48 9 -6 10 -11 2 -15 -6 -4 -15 -4 -21 -1 -18 11 -10 -11
10 -30 27 -25 25 -38 -5 -33 -28 6 -34 -12 -10 -32 12 -10 15 -10 15 0 0 10 3
10 15 0 8 -7 15 -9 15 -5 0 5 9 0 20 -10 11 -10 20 -30 20 -44 0 -14 5 -33 10
-41 8 -13 10 -12 10 4 0 15 3 16 15 6 13 -11 13 -14 0 -27 -17 -17 -20 -53 -4
-53 6 0 8 8 5 18 -4 13 -1 18 14 18 13 0 21 -9 25 -28 4 -15 13 -28 20 -28 8
0 17 -5 21 -11 4 -8 0 -9 -15 -4 -26 8 -26 2 -4 -32 10 -15 17 -38 15 -52 -2
-19 2 -14 13 14 8 22 15 41 15 43 0 2 4 1 9 -3 5 -3 7 -21 4 -40 -6 -40 4 -77
16 -57 5 9 14 5 32 -15 13 -14 18 -23 12 -19 -7 4 -13 2 -13 -4 0 -7 -6 -10
-12 -7 -7 2 -12 11 -11 18 2 9 -6 15 -17 16 -11 1 -20 -3 -20 -8 0 -6 -4 -7
-10 -4 -6 3 -7 -1 -3 -10 4 -11 8 -13 13 -6 4 8 13 5 25 -9 10 -11 23 -20 29
-20 11 -1 66 -84 66 -100 0 -4 7 -11 16 -14 8 -3 12 -11 9 -17 -4 -5 1 -19 11
-30 16 -18 16 -19 -9 -19 l-26 0 22 -22 c19 -20 22 -21 25 -6 2 10 9 15 18 11
11 -4 12 -8 4 -13 -9 -5 -4 -20 15 -50 20 -31 24 -45 15 -50 -7 -5 -10 -17 -5
-31 5 -19 4 -21 -5 -9 -10 13 -11 13 -7 0 2 -8 9 -16 15 -16 7 -1 15 -2 20 -3
4 0 8 -17 8 -37 1 -20 10 -45 21 -57 11 -12 26 -33 33 -46 19 -38 62 -81 73
-74 6 4 8 0 4 -10 -4 -12 -1 -17 11 -17 16 0 46 -34 47 -54 0 -8 30 -15 77
-17 10 0 21 -5 24 -11 5 -7 2 -8 -6 -3 -8 5 -11 4 -6 -3 4 -6 13 -9 20 -6 7 3
19 -2 26 -11 16 -20 41 -20 34 0 -4 9 0 15 10 15 9 0 16 6 16 14 0 8 11 13 30
12 32 -1 36 -6 20 -22 -6 -6 3 -13 25 -20 25 -8 32 -8 27 0 -8 14 47 -22 73
-47 21 -21 20 -21 -32 0 -7 3 -13 0 -13 -6 0 -6 5 -11 11 -11 6 0 22 -9 36
-20 25 -19 26 -19 42 -2 23 26 45 18 30 -11 -7 -12 -8 -19 -4 -15 4 4 17 -4
30 -18 12 -13 25 -24 29 -24 14 0 5 23 -16 41 -13 10 -18 18 -11 19 6 0 15 -4
18 -10 3 -5 21 -10 40 -10 19 0 37 -4 40 -10 3 -5 18 -10 32 -10 18 0 24 -4
19 -15 -4 -11 1 -15 17 -15 16 0 18 3 9 9 -11 7 -10 11 2 24 21 20 9 27 -57
33 -29 3 -56 9 -61 14 -6 6 5 7 27 3 20 -3 47 -3 61 1 44 11 27 47 -22 46 -15
-1 -14 -3 2 -15 16 -12 17 -15 4 -15 -8 0 -27 9 -41 20 -30 24 -45 26 -27 5
26 -31 -1 -13 -46 30 -45 44 -64 55 -64 35 0 -5 5 -10 11 -10 6 0 23 -10 37
-21 l27 -22 -35 7 c-19 3 -38 12 -42 19 -18 32 -37 51 -44 45 -4 -4 -1 -14 6
-23 7 -9 11 -18 8 -20 -8 -8 -38 6 -38 17 0 5 -9 7 -20 3 -15 -5 -21 0 -26 20
-3 14 -16 32 -27 40 -33 23 -12 18 37 -10 42 -23 44 -24 49 -5 5 19 -17 35
-33 25 -11 -7 -23 26 -13 36 5 5 21 2 37 -6 46 -24 66 -19 31 9 -16 13 -33 22
-38 19 -4 -2 -19 10 -33 27 -15 17 -40 38 -58 47 -17 9 -42 28 -56 43 -14 15
-36 31 -50 35 -31 10 -49 33 -43 55 2 9 -3 22 -11 29 -9 8 -16 18 -16 24 0 5
-16 30 -36 53 -23 29 -30 44 -21 44 8 0 21 -10 30 -22 8 -13 18 -20 22 -16 4
4 2 16 -6 25 -7 10 4 2 25 -17 29 -27 36 -30 27 -12 -9 17 -9 22 1 22 7 0 2 7
-10 16 -25 17 -29 34 -8 34 8 0 16 5 18 11 3 9 10 9 26 0 24 -13 29 -7 10 13
-8 9 -26 12 -49 9 -38 -5 -52 5 -54 39 -2 17 -1 17 15 0 12 -12 14 -19 6 -24
-7 -5 -3 -8 9 -8 11 0 27 5 35 10 13 8 12 10 -2 10 -10 0 -18 5 -18 10 0 6 4
10 10 10 5 0 6 7 3 17 -4 11 -3 14 5 9 7 -4 12 -13 12 -20 0 -7 7 -13 15 -13
8 0 15 6 15 13 0 6 7 14 14 17 10 4 13 1 9 -9 -3 -9 3 -22 17 -31 15 -11 19
-18 11 -26 -7 -7 0 -21 25 -45 19 -19 38 -32 41 -29 3 3 -10 20 -28 36 -40 37
-34 39 17 9 33 -19 37 -20 31 -5 -5 14 -4 16 11 7 67 -41 85 -50 89 -46 7 6
-17 31 -37 39 -10 4 -8 6 7 6 12 1 25 -4 28 -9 5 -8 11 -8 20 0 9 8 23 6 49
-7 31 -14 40 -15 58 -4 11 7 17 8 13 2 -3 -6 -3 -12 2 -12 61 -9 77 -7 87 6 6
9 22 14 36 13 15 -2 25 2 25 11 0 18 38 32 56 20 11 -7 11 -9 -3 -9 -20 0 -24
-15 -6 -26 6 -4 20 4 33 19 11 15 24 27 28 27 13 0 7 -23 -10 -42 -9 -10 -13
-21 -9 -26 4 -4 14 2 22 12 7 11 17 17 20 13 4 -4 1 -13 -6 -22 -7 -8 -8 -15
-3 -15 5 0 16 9 26 20 9 11 22 20 29 20 9 0 9 -3 0 -12 -15 -15 -16 -31 0 -22
7 4 8 3 4 -5 -4 -6 0 -18 8 -27 15 -14 18 -14 34 2 9 10 23 29 30 43 7 14 10
18 8 9 -3 -10 0 -20 5 -24 6 -3 8 -16 5 -28 -3 -12 -3 -31 0 -43 6 -21 6 -21
25 -2 10 10 19 24 19 30 0 24 23 89 32 89 5 0 13 -10 18 -22 8 -20 9 -21 9 -4
1 32 10 13 16 -34 3 -29 1 -46 -7 -52 -10 -6 -10 -8 0 -8 6 0 12 -7 12 -15 0
-8 5 -15 10 -15 6 0 22 -12 36 -27 20 -22 24 -23 21 -7 -2 10 -8 29 -15 41 -7
12 -12 25 -12 30 1 4 7 -3 15 -17 7 -14 19 -26 27 -26 7 -1 21 -2 31 -3 9 0
17 -8 17 -16 0 -8 5 -15 11 -15 6 0 8 7 5 16 -3 9 -6 18 -6 20 0 2 -7 4 -15 4
-18 0 -20 16 -2 24 6 3 2 3 -10 0 -18 -4 -23 -1 -23 15 0 11 -4 23 -10 26 -5
3 -10 1 -10 -5 0 -6 -4 -8 -10 -5 -5 3 -10 11 -10 17 0 6 3 8 7 5 3 -4 15 0
25 10 15 13 18 14 18 1 0 -8 11 -25 24 -37 14 -13 26 -33 28 -45 2 -11 8 -19
13 -17 13 5 7 42 -11 62 -23 26 -18 42 9 27 12 -7 42 -13 67 -13 36 0 51 6 75
28 l30 29 -32 -16 c-46 -23 -79 -21 -86 5 -3 12 -10 18 -17 14 -8 -5 -8 -10 0
-20 8 -9 8 -15 0 -20 -15 -9 -30 3 -24 19 3 8 1 17 -5 21 -19 11 -12 21 17 20
16 0 30 -7 34 -17 8 -20 16 -22 38 -8 13 8 12 11 -5 25 -20 15 -19 16 5 14 14
-1 31 -1 38 0 17 1 15 21 -2 21 -8 0 -18 5 -22 12 -4 6 -3 8 4 4 6 -3 17 1 25
9 9 8 23 15 31 15 9 0 16 7 16 15 0 17 16 20 25 5 3 -5 1 -10 -6 -10 -9 0 -8
-4 1 -15 10 -12 15 -12 37 2 23 16 24 17 7 24 -18 7 -18 8 1 9 11 1 14 4 8 7
-7 2 -13 9 -13 14 0 4 6 6 13 3 17 -6 41 21 32 36 -4 6 -16 8 -28 5 -19 -5
-20 -5 -4 5 9 6 23 8 30 3 14 -9 19 -10 52 -12 22 -1 24 -4 15 -21 -6 -11 -16
-17 -25 -14 -8 4 -15 1 -15 -6 0 -6 5 -8 10 -5 6 3 10 -2 10 -11 0 -14 3 -13
20 6 11 13 20 29 20 37 0 7 7 13 16 13 8 0 12 5 9 10 -3 6 -21 10 -38 10 -20
0 -39 8 -50 20 -21 25 -22 37 -2 20 8 -6 19 -9 24 -5 7 3 8 0 5 -9 -4 -11 0
-16 11 -16 11 0 15 5 12 14 -4 11 -1 13 10 9 11 -4 14 -2 11 8 -2 8 -15 15
-27 17 -22 3 -22 4 -4 17 25 20 33 18 33 -5 0 -29 27 -25 34 5 4 14 11 25 17
25 6 0 8 9 4 20 -5 15 -3 18 8 14 10 -3 18 2 22 15 3 11 18 22 36 26 29 7 55
43 50 73 -1 6 3 12 10 12 6 0 9 7 5 15 -3 8 0 14 7 12 20 -4 26 -20 14 -41 -6
-12 -12 -27 -13 -35 -2 -8 -8 -17 -14 -21 -8 -5 -9 -16 -5 -30 6 -20 4 -22
-13 -18 -24 7 -32 -8 -22 -37 7 -19 7 -19 18 0 10 17 11 16 6 -11 -3 -18 -1
-34 4 -38 13 -8 42 31 42 55 0 10 14 30 30 46 32 30 39 49 16 40 -23 -9 -7 24
23 50 l26 22 -24 -6 c-17 -4 -22 -3 -17 5 4 7 12 12 18 12 5 0 22 9 38 20 15
11 30 16 34 12 8 -8 26 17 26 37 0 11 -4 9 -15 -5 -8 -10 -15 -15 -15 -10 0 5
-7 3 -16 -4 -13 -12 -14 -11 -4 11 6 14 24 34 41 44 16 11 27 25 25 32 -3 6 2
17 10 23 8 7 14 9 14 5 0 -4 7 -2 15 5 22 19 18 32 -7 24 -22 -6 -21 -5 5 23
15 16 27 34 27 41 0 7 7 12 16 12 9 0 12 5 8 12 -4 6 -3 8 4 5 12 -8 42 2 42
14 0 5 -7 9 -15 9 -17 0 -9 31 12 43 8 5 11 16 8 28 -4 12 1 28 14 42 70 78
84 99 71 107 -10 6 -8 11 9 19 19 11 25 8 22 -11 -2 -14 16 -8 32 10 10 10 14
22 11 25 -4 4 -1 13 6 22 9 11 9 15 1 15 -6 0 -14 -6 -17 -14 -3 -8 -13 -17
-22 -21 -14 -5 -14 -4 1 13 9 10 17 25 17 33 0 20 20 39 42 39 19 0 35 41 22
61 -5 8 -3 9 6 4 10 -6 12 -4 7 8 -4 11 -2 14 9 10 7 -3 14 -9 14 -13 0 -10
26 -7 36 3 4 4 2 7 -4 7 -9 0 -9 5 0 21 10 17 10 23 1 26 -7 3 -13 12 -13 20
0 10 6 13 16 9 8 -3 12 -2 9 3 -3 5 3 12 12 14 17 4 17 5 0 6 -14 1 -16 7 -11
29 7 27 7 27 -15 8 -21 -19 -21 -19 -21 9 0 24 3 26 25 21 15 -4 25 -2 25 4 0
6 5 8 10 5 6 -3 10 1 10 10 0 12 -6 15 -20 10 -14 -5 -20 -2 -20 9 0 15 12 21
33 17 13 -2 40 29 32 37 -3 4 -13 -1 -20 -11 -8 -12 -15 -14 -20 -8 -8 14 3
31 21 31 8 0 14 4 14 9 0 5 -10 7 -22 3 -21 -5 -22 -4 -9 11 7 9 9 17 4 17 -5
0 -16 -11 -23 -25z"/>
<path d="M8266 5428 c19 -160 27 -208 43 -238 74 -144 125 -444 116 -675 -6
-149 -13 -203 -26 -211 -5 -3 -9 -36 -9 -74 0 -38 -6 -89 -14 -112 -8 -24 -24
-79 -36 -123 -54 -197 -279 -614 -405 -751 -5 -6 -26 -30 -45 -54 -147 -182
-513 -570 -615 -651 -23 -19 -98 -81 -166 -138 -168 -141 -251 -193 -474 -291
-90 -40 -363 -127 -535 -171 -65 -16 -230 -11 -310 10 -78 20 -214 82 -284
130 -23 15 -48 30 -58 34 -17 6 -149 92 -229 149 -222 159 -614 577 -818 873
-179 259 -241 364 -302 505 -32 75 -40 93 -98 224 -17 38 -31 73 -31 78 0 5
-11 33 -24 61 -121 267 -186 642 -157 906 18 157 61 244 175 357 82 80 102
116 87 157 -5 14 -25 2 -120 -73 -62 -50 -116 -88 -119 -85 -7 6 58 65 71 65
6 0 8 3 5 6 -3 3 -53 -8 -110 -24 -56 -17 -152 -42 -213 -57 -148 -35 -160
-41 -202 -92 -20 -24 -53 -53 -72 -63 -20 -10 -58 -41 -86 -70 -27 -28 -70
-65 -95 -82 -25 -17 -69 -51 -97 -75 -29 -25 -56 -42 -61 -39 -5 3 -21 -4 -38
-15 -16 -11 -56 -33 -89 -48 -33 -16 -75 -42 -93 -59 -18 -16 -102 -65 -185
-107 -84 -43 -163 -85 -177 -95 -14 -9 -42 -18 -62 -18 -62 -2 -226 -52 -355
-108 -17 -8 -36 -14 -43 -14 -14 0 -159 -69 -180 -85 -8 -7 -40 -20 -70 -30
-104 -34 -439 -172 -568 -235 -34 -16 -71 -30 -81 -30 -16 0 -117 -41 -172
-70 -8 -4 -51 -22 -95 -40 -152 -60 -430 -229 -656 -399 l-88 -65 0 -1708 0
-1708 5905 0 5905 0 -2 1842 -3 1842 -115 61 c-63 33 -137 74 -165 89 -68 39
-252 117 -355 151 -47 15 -92 33 -100 39 -8 7 -33 18 -55 25 -22 8 -76 34
-120 58 -75 41 -349 173 -360 173 -6 0 -261 119 -449 209 -78 38 -177 81 -221
96 -44 15 -118 45 -163 66 -46 21 -87 39 -90 39 -19 0 -172 88 -234 135 -70
53 -106 73 -228 126 -30 13 -83 40 -117 61 -107 64 -159 88 -170 77 -7 -7 -20
6 -41 38 -47 73 -82 102 -142 120 -30 9 -71 24 -90 34 -48 26 -53 24 -34 -12
16 -31 14 -31 -46 16 -33 27 -64 54 -68 61 -11 19 -157 114 -175 114 -2 0 -3
-15 -1 -32z"/>
</g>
</svg>
